<svg width="28" height="28" viewBox="0 0 28 28" fill="none" xmlns="http://www.w3.org/2000/svg">
<path d="M0 8C0 3.58172 3.58172 0 8 0H20C24.4183 0 28 3.58172 28 8V26C28 27.1046 27.1046 28 26 28H8C3.58172 28 0 24.4183 0 20V8Z" fill="#A85934" fill-opacity="0.9"/>
<path d="M12.5356 21.875C11.9834 21.875 11.5356 21.4273 11.5356 20.875V19.8757C11.5356 19.5384 11.8091 19.265 12.1463 19.265C12.4836 19.265 12.757 18.9916 12.757 18.6543V9.34568C12.757 9.00841 12.4836 8.735 12.1463 8.735C11.8091 8.735 11.5356 8.46159 11.5356 8.12432V7.125C11.5356 6.57271 11.9834 6.125 12.5356 6.125L17.9888 6.125C18.961 6.125 19.8041 6.29 20.5181 6.62C21.2472 6.935 21.8093 7.3925 22.2043 7.9925C22.6144 8.5775 22.8195 9.2825 22.8195 10.1075V10.3325C22.8195 11.0525 22.6828 11.645 22.4093 12.11C22.1359 12.56 21.8093 12.9125 21.4295 13.1675C21.1324 13.3631 20.8454 13.5139 20.5684 13.6198C20.4583 13.6619 20.3813 13.7652 20.3813 13.8831C20.3813 14.0052 20.4637 14.1109 20.5788 14.1515C20.8578 14.2498 21.1566 14.4018 21.4751 14.6075C21.8701 14.8475 22.2043 15.2 22.4777 15.665C22.7663 16.13 22.9106 16.7375 22.9106 17.4875V17.7125C22.9106 18.5825 22.7056 19.3325 22.2954 19.9625C21.8853 20.5775 21.3156 21.05 20.5864 21.38C19.8725 21.71 19.0369 21.875 18.0799 21.875H12.5356ZM15.7648 18.175C15.7648 18.7273 16.2125 19.175 16.7648 19.175H17.7153C18.3685 19.175 18.8926 19.0175 19.2876 18.7025C19.6978 18.3875 19.9028 17.9375 19.9028 17.3525V17.1275C19.9028 16.5425 19.7053 16.0925 19.3104 15.7775C18.9154 15.4625 18.3837 15.305 17.7153 15.305H16.7648C16.2125 15.305 15.7648 15.7527 15.7648 16.305V18.175ZM15.7648 11.605C15.7648 12.1573 16.2125 12.605 16.7648 12.605H17.6698C18.2926 12.605 18.8015 12.4475 19.1965 12.1325C19.6066 11.8175 19.8117 11.3825 19.8117 10.8275V10.6025C19.8117 10.0325 19.6142 9.5975 19.2192 9.2975C18.8243 8.9825 18.3078 8.825 17.6698 8.825H16.7648C16.2125 8.825 15.7648 9.27272 15.7648 9.825V11.605Z" fill="#F4E6CD" fill-opacity="0.9"/>
<path d="M6.25 21.875C5.69772 21.875 5.25 21.4273 5.25 20.875V7.125C5.25 6.57272 5.69772 6.125 6.25 6.125H7.33588C7.88816 6.125 8.33588 6.57272 8.33588 7.125V11.6275C8.33588 12.1798 8.78359 12.6275 9.33588 12.6275H11.6641C12.2164 12.6275 12.6641 12.1798 12.6641 11.6275V7.125C12.6641 6.57272 13.1118 6.125 13.6641 6.125H14.75C15.3023 6.125 15.75 6.57272 15.75 7.125V20.875C15.75 21.4273 15.3023 21.875 14.75 21.875H13.6641C13.1118 21.875 12.6641 21.4273 12.6641 20.875V16.3275C12.6641 15.7752 12.2164 15.3275 11.6641 15.3275H9.33588C8.78359 15.3275 8.33588 15.7752 8.33588 16.3275V20.875C8.33588 21.4273 7.88816 21.875 7.33588 21.875H6.25Z" fill="#C99477" fill-opacity="0.9"/>
</svg>
