<svg width="32" height="32" viewBox="0 0 32 32" fill="none" xmlns="http://www.w3.org/2000/svg">
<path d="M0 8C0 3.58172 3.58172 0 8 0H24C28.4183 0 32 3.58172 32 8V30C32 31.1046 31.1046 32 30 32H8C3.58172 32 0 28.4183 0 24V8Z" fill="#A85934" fill-opacity="0.9"/>
<path d="M14.1836 25C13.6313 25 13.1836 24.5523 13.1836 24V22.7151C13.1836 22.3296 13.4961 22.0171 13.8815 22.0171C14.267 22.0171 14.5794 21.7047 14.5794 21.3192V10.6808C14.5794 10.2953 14.267 9.98286 13.8815 9.98286C13.4961 9.98286 13.1836 9.67039 13.1836 9.28494V8C13.1836 7.44772 13.6313 7 14.1836 7L20.5586 7C21.6697 7 22.6332 7.18857 23.4492 7.56571C24.2826 7.92572 24.9249 8.44857 25.3763 9.13429C25.8451 9.80286 26.0794 10.6086 26.0794 11.5514V11.8086C26.0794 12.6314 25.9232 13.3086 25.6107 13.84C25.2982 14.3543 24.9249 14.7571 24.4909 15.0486C24.1513 15.2721 23.8233 15.4444 23.5068 15.5655C23.3809 15.6136 23.293 15.7317 23.293 15.8664C23.293 16.0059 23.387 16.1268 23.5186 16.1732C23.8375 16.2855 24.1789 16.4593 24.543 16.6943C24.9944 16.9686 25.3763 17.3714 25.6888 17.9029C26.0187 18.4343 26.1836 19.1286 26.1836 19.9857V20.2429C26.1836 21.2371 25.9492 22.0943 25.4805 22.8143C25.0117 23.5171 24.3607 24.0571 23.5273 24.4343C22.7114 24.8114 21.7565 25 20.6628 25H14.1836ZM18.0169 20.9143C18.0169 21.4666 18.4646 21.9143 19.0169 21.9143H20.2461C20.9926 21.9143 21.5916 21.7343 22.043 21.3743C22.5117 21.0143 22.7461 20.5 22.7461 19.8314V19.5743C22.7461 18.9057 22.5204 18.3914 22.069 18.0314C21.6176 17.6714 21.01 17.4914 20.2461 17.4914H19.0169C18.4646 17.4914 18.0169 17.9391 18.0169 18.4914V20.9143ZM18.0169 13.4057C18.0169 13.958 18.4646 14.4057 19.0169 14.4057H20.194C20.9058 14.4057 21.4874 14.2257 21.9388 13.8657C22.4076 13.5057 22.6419 13.0086 22.6419 12.3743V12.1171C22.6419 11.4657 22.4162 10.9686 21.9648 10.6257C21.5135 10.2657 20.9232 10.0857 20.194 10.0857H19.0169C18.4646 10.0857 18.0169 10.5334 18.0169 11.0857V13.4057Z" fill="#CDD6F4" fill-opacity="0.9"/>
<path d="M7 25C6.44772 25 6 24.5523 6 24V8C6 7.44772 6.44772 7 7 7H8.52672C9.079 7 9.52672 7.44772 9.52672 8V13.4314C9.52672 13.9837 9.97443 14.4314 10.5267 14.4314H13.4733C14.0256 14.4314 14.4733 13.9837 14.4733 13.4314V8C14.4733 7.44772 14.921 7 15.4733 7H17C17.5523 7 18 7.44772 18 8V24C18 24.5523 17.5523 25 17 25H15.4733C14.921 25 14.4733 24.5523 14.4733 24V18.5171C14.4733 17.9649 14.0256 17.5171 13.4733 17.5171H10.5267C9.97443 17.5171 9.52672 17.9649 9.52672 18.5171V24C9.52672 24.5523 9.079 25 8.52672 25H7Z" fill="#C99477" fill-opacity="0.9"/>
</svg>
