<svg width="200" height="200" viewBox="0 0 200 200" fill="none" xmlns="http://www.w3.org/2000/svg">
<path d="M110.667 58C122.003 58 131.297 65.8679 132.245 75.89C134.227 74.8908 136.535 74.3158 139 74.3158C146.364 74.3158 152.333 79.4292 152.333 85.7368C152.333 87.6188 151.797 89.3914 150.855 90.9566C151.87 90.7448 152.921 90.6316 154 90.6316C162.284 90.6316 169 97.2059 169 105.316C169 112.874 163.166 119.092 155.667 119.904V120H89C77.9543 120 69 111.234 69 100.421C69 89.6079 77.9543 80.8421 89 80.8421C89.1022 80.8421 89.2042 80.847 89.306 80.8485C89.1081 79.785 89 78.6933 89 77.5789C89 66.7658 98.7005 58 110.667 58Z" fill="#48484A"/>
<path d="M80.5625 68C94.5911 68 106.093 77.8638 107.266 90.4281C109.718 89.1754 112.574 88.4545 115.625 88.4545C124.738 88.4545 132.125 94.865 132.125 102.773C132.125 105.132 131.461 107.354 130.296 109.317C131.551 109.051 132.853 108.909 134.188 108.909C144.439 108.909 152.75 117.151 152.75 127.318C152.75 136.794 145.531 144.59 136.25 145.607V145.727H53.75C40.081 145.727 29 134.738 29 121.182C29 107.626 40.081 96.6364 53.75 96.6364C53.8765 96.6364 54.0026 96.6425 54.1287 96.6444C53.8838 95.3111 53.75 93.9425 53.75 92.5455C53.75 78.9894 65.7544 68 80.5625 68Z" fill="#F2F2F2"/>
</svg>
