<svg width="200" height="200" viewBox="0 0 200 200" fill="none" xmlns="http://www.w3.org/2000/svg">
<path d="M154 74.5909C154 90.3812 141.156 103.182 125.313 103.182C109.469 103.182 96.625 90.3812 96.625 74.5909C96.625 58.8006 109.469 46 125.313 46C141.156 46 154 58.8006 154 74.5909Z" fill="#48484A"/>
<path d="M88.1875 56.0909C99.6654 56.0909 109.076 64.2011 110.036 74.5318C112.042 73.5018 114.379 72.9091 116.875 72.9091C124.331 72.9091 130.375 78.1799 130.375 84.6818C130.375 86.6217 129.832 88.4489 128.879 90.0623C129.905 89.844 130.97 89.7273 132.063 89.7273C140.45 89.7273 147.25 96.5041 147.25 104.864C147.25 112.655 141.343 119.065 133.75 119.901V120H66.25C55.0662 120 46 110.964 46 99.8182C46 88.6721 55.0662 79.6364 66.25 79.6364C66.3535 79.6364 66.4567 79.6414 66.5598 79.6429C66.3594 78.5467 66.25 77.4214 66.25 76.2727C66.25 65.1266 76.0718 56.0909 88.1875 56.0909Z" fill="#F2F2F2"/>
<path d="M72.3371 131.077C73.1234 129.311 75.1923 128.517 76.9581 129.303C78.724 130.09 79.5182 132.159 78.732 133.924L76.6983 138.492C75.9121 140.258 73.8432 141.052 72.0773 140.266C70.3114 139.48 69.5172 137.411 70.3035 135.645L72.3371 131.077Z" fill="#48484A"/>
<path d="M89.3371 128.077C90.1233 126.311 92.1922 125.517 93.9581 126.303C95.724 127.09 96.5182 129.159 95.7319 130.924L93.6983 135.492C92.912 137.258 90.8431 138.052 89.0773 137.266C87.3114 136.48 86.5172 134.411 87.3034 132.645L89.3371 128.077Z" fill="#48484A"/>
<path d="M105.698 148.924C104.912 150.69 102.843 151.484 101.077 150.698C99.3114 149.912 98.5172 147.843 99.3035 146.077L101.337 141.51C102.123 139.744 104.192 138.949 105.958 139.736C107.724 140.522 108.518 142.591 107.732 144.357L105.698 148.924Z" fill="#48484A"/>
<path d="M78.5237 116.077C79.3099 114.311 81.3788 113.517 83.1447 114.303C84.9105 115.09 85.7047 117.159 84.9185 118.924L83.6983 121.665C82.9121 123.431 80.8432 124.225 79.0773 123.439C77.3114 122.653 76.5172 120.584 77.3035 118.818L78.5237 116.077Z" fill="#48484A"/>
<path d="M83.5237 143.077C84.3099 141.311 86.3788 140.517 88.1447 141.303C89.9105 142.09 90.7047 144.159 89.9185 145.924C89.1323 147.69 87.0634 148.485 85.2975 147.698C83.5316 146.912 82.7374 144.843 83.5237 143.077Z" fill="#48484A"/>
<path d="M113.698 127.924C112.912 129.69 110.843 130.484 109.077 129.698C107.311 128.912 106.517 126.843 107.303 125.077C108.09 123.311 110.159 122.517 111.924 123.303C113.69 124.09 114.485 126.159 113.698 127.924Z" fill="#48484A"/>
</svg>
