<svg width="200" height="200" viewBox="0 0 200 200" fill="none" xmlns="http://www.w3.org/2000/svg">
<path d="M132.623 96.647C133.099 96.941 133.676 97.1125 134.296 97.1125C136.081 97.1125 137.526 95.667 137.526 93.882C137.526 92.6745 136.865 91.6245 135.885 91.068L135.867 91.061L128.685 86.9135L136.291 82.4965C137.834 81.5935 134.586 76.0075 133.046 76.9105L125.441 81.3275V73.0255C125.441 71.216 118.952 71.216 118.952 73.0255V84.9955L108.634 90.9525L102.568 87.547V75.577L112.995 69.5675C114.538 68.6645 111.29 63.0785 109.75 63.9815L102.568 68.129V59.351C102.568 57.5415 96.0793 57.5415 96.0793 59.351V68.129L88.8973 63.9815C87.3538 63.0785 84.1163 68.717 85.6528 69.5675L96.0793 75.577V87.547L90.0138 90.9525L79.7448 84.9955V72.917C79.7448 71.1075 73.2558 71.1075 73.2558 72.917V81.219L65.6503 76.802C64.1068 75.899 60.8693 81.5375 62.4058 82.388L70.0113 86.805L62.8293 90.9525C61.2858 91.8555 64.5338 97.4415 66.0738 96.5385L76.5003 90.529L86.8183 96.486V103.455L76.5003 109.464L66.0738 103.455C64.5303 102.552 61.2928 108.19 62.8293 109.041L70.0113 113.188L62.4058 117.605C60.8623 118.508 64.1103 124.094 65.6503 123.191L73.2558 118.774V127.076C73.2558 128.886 79.7448 128.886 79.7448 127.076V114.998L90.0628 109.041L96.1283 112.446V124.416L85.7018 130.426C84.1583 131.329 87.4063 136.915 88.9463 136.012L96.1283 131.864V140.653C96.1283 142.462 102.617 142.462 102.617 140.653V131.875L109.799 136.022C111.343 136.925 114.58 131.287 113.044 130.436L102.617 124.427V112.446L108.683 109.041L119.001 114.998V127.076C119.001 128.886 125.49 128.886 125.49 127.076V118.774L133.095 123.191C134.639 124.094 137.876 118.456 136.34 117.605L128.734 113.188L135.916 109.041C137.46 108.138 134.212 102.552 132.672 103.455L122.193 109.464L111.875 103.507V96.5385L122.249 90.5815L132.623 96.647ZM106.502 104.197L103.258 106.006L102.565 106.377L99.3203 108.187L96.0758 106.377L95.3828 106.006L92.1383 104.197V95.849L95.3828 94.0395L96.0758 93.6685L99.3203 91.859L102.565 93.6685L103.258 94.0395L106.502 95.849V100.42V104.197Z" fill="#48484A"/>
</svg>
