<svg width="200" height="200" viewBox="0 0 200 200" fill="none" xmlns="http://www.w3.org/2000/svg">
<path d="M110.667 48C121.031 48 129.529 55.2646 130.396 64.5181C132.207 63.5955 134.317 63.0646 136.571 63.0646C143.304 63.0646 148.762 67.7859 148.762 73.6099C148.762 75.3475 148.271 76.9842 147.411 78.4294C148.338 78.2338 149.299 78.1293 150.286 78.1293C157.86 78.1293 164 84.1995 164 91.6874C164 98.666 158.666 104.408 151.81 105.157V105.246H90.8571C80.7582 105.246 72.5714 97.152 72.5714 87.168C72.5714 77.1841 80.7582 69.0905 90.8571 69.0905C90.9506 69.0905 91.0438 69.095 91.1369 69.0964C90.956 68.1144 90.8571 67.1064 90.8571 66.0776C90.8571 56.0936 99.7262 48 110.667 48Z" fill="#48484A"/>
<path d="M83.1429 57.2332C95.969 57.2332 106.485 66.3405 107.558 77.9414C109.799 76.7848 112.411 76.1192 115.2 76.1192C123.532 76.1192 130.286 82.0381 130.286 89.3394C130.286 91.5178 129.679 93.5696 128.614 95.3814C129.761 95.1363 130.951 95.0052 132.171 95.0052C141.544 95.0052 149.143 102.615 149.143 112.003C149.143 120.751 142.542 127.95 134.057 128.889V129H58.6286C46.1312 129 36 118.853 36 106.337C36 93.8202 46.1312 83.6736 58.6286 83.6736C58.7442 83.6736 58.8596 83.6792 58.9748 83.681C58.7509 82.4499 58.6286 81.1863 58.6286 79.8964C58.6286 67.3798 69.604 57.2332 83.1429 57.2332Z" fill="#F2F2F2"/>
<path d="M75 109H90.5L79.5 125H89.5L62.5 156.5L71.5 134H62.5L75 109Z" fill="#EB6E4B"/>
</svg>
