<svg width="77" height="12" viewBox="0 0 77 12" fill="none" xmlns="http://www.w3.org/2000/svg">
<g clip-path="url(#clip0_2161_696)">
<path d="M10.1101 0C4.54761 0 0.0415039 2.69388 0.0415039 6.00816C0.0415039 9.32245 4.54761 12.0163 10.1101 12.0163C15.6726 12.0163 20.1787 9.32245 20.1787 6.00816C20.1787 2.69388 15.6726 0 10.1101 0ZM16.0687 7.20816C15.6561 7.11837 15.0701 6.52245 14.3274 6.4C13.5763 6.27755 13.0234 6.36735 12.685 7.02041C12.3466 7.67347 11.901 9.10204 11.7772 9.33061C11.6534 9.55918 10.7126 10.1388 9.65619 9.37959C9.44161 9.24082 9.05372 8.58776 9.24354 7.82857C9.44161 7.06939 10.399 7.05306 10.4897 7.61633C10.2917 7.58367 9.84601 7.63265 10.0606 8.0898C10.2752 8.54694 11.0262 8.40816 11.216 7.96735C11.4141 7.52653 11.4306 7.11837 11.0592 6.80816C10.6878 6.4898 10.2917 6.21224 9.79649 6.35102C9.30131 6.4898 8.67409 6.98776 8.3027 7.17551C7.93132 7.37143 6.96573 7.61633 6.30549 7.31429C5.64526 7.01224 4.84472 6.17143 4.16798 5.94286C3.49124 5.71429 3.11985 5.48571 2.56691 5.62449C1.99745 5.80408 1.47752 5.96735 1.47752 5.77959C1.49402 5.6898 2.59166 4.77551 3.96991 5.02041C5.18309 5.23265 5.0758 5.79592 6.35501 5.8449C7.39488 5.88571 7.67548 4.85714 7.8653 4.04898C8.07987 3.15102 8.88041 2.04082 10.2174 2.66122C11.4966 3.54286 10.7868 4.62041 10.6796 4.75918C10.5723 4.89796 9.78824 5.21633 9.82125 4.80816C9.91203 4.70204 10.1926 4.54694 10.1761 4.36735C10.1596 4.18776 9.99456 3.83673 9.60667 3.83673C9.21878 3.83673 8.80613 4.18776 8.82264 4.6449C8.83915 5.10204 8.92993 5.78776 10.1926 5.9102C11.0674 5.92653 11.6369 4.92245 12.8253 4.81633C14.022 4.7102 14.7483 5.45306 15.7634 6.13878C16.7785 6.82449 18.4208 6.42449 18.8087 6.27755C18.5776 6.61225 17.8431 7.37143 16.0687 7.20816Z" fill="#C99477"/>
<path d="M24.5362 9.26534H24.2061C24.1896 9.17555 24.1566 9.09392 24.1071 9.02045C24.0575 8.94698 23.9998 8.88983 23.9337 8.84086C23.8677 8.79188 23.7934 8.75922 23.7109 8.73473C23.6284 8.71024 23.5459 8.70208 23.4551 8.70208C23.29 8.70208 23.1415 8.7429 23.0094 8.82453C22.8774 8.90616 22.7701 9.02861 22.6958 9.18371C22.6215 9.34698 22.5803 9.53473 22.5803 9.77147C22.5803 10 22.6215 10.196 22.6958 10.3592C22.7701 10.5225 22.8774 10.6368 23.0094 10.7184C23.1415 10.8 23.29 10.8409 23.4551 10.8409C23.5459 10.8409 23.6284 10.8327 23.7109 10.8082C23.7934 10.7837 23.8677 10.7511 23.9337 10.7021C23.9998 10.6531 24.0575 10.596 24.1071 10.5225C24.1566 10.449 24.1896 10.3674 24.2061 10.2776H24.5362C24.5115 10.4164 24.4702 10.5388 24.4042 10.6449C24.3381 10.7511 24.2556 10.8409 24.1648 10.9225C24.0658 10.996 23.9585 11.0531 23.843 11.0939C23.7274 11.1347 23.5954 11.1511 23.4633 11.1511C23.2322 11.1511 23.0259 11.0939 22.8526 10.9878C22.671 10.8735 22.5307 10.7184 22.4317 10.5143C22.3327 10.3102 22.2749 10.0653 22.2749 9.78779C22.2749 9.50208 22.3244 9.26534 22.4317 9.06126C22.5307 8.85718 22.6793 8.69392 22.8526 8.58779C23.0342 8.47351 23.2405 8.42453 23.4633 8.42453C23.6036 8.42453 23.7274 8.44086 23.843 8.48167C23.9668 8.52249 24.074 8.57963 24.1648 8.6531C24.2639 8.72657 24.3464 8.81637 24.4042 8.93065C24.4702 9.00412 24.5115 9.12657 24.5362 9.26534ZM25.8732 11.1429C25.6751 11.1429 25.5101 11.1021 25.3698 11.0123C25.2295 10.9225 25.1222 10.8082 25.0479 10.6531C24.9736 10.498 24.9324 10.3184 24.9324 10.1143C24.9324 9.91024 24.9736 9.73065 25.0479 9.57555C25.1222 9.42045 25.2295 9.298 25.3698 9.2082C25.5101 9.11841 25.6669 9.07759 25.8484 9.07759C25.9557 9.07759 26.0548 9.09392 26.162 9.12657C26.2611 9.15922 26.3601 9.21637 26.4426 9.298C26.5252 9.37147 26.5912 9.47759 26.6407 9.6082C26.6902 9.73881 26.715 9.89392 26.715 10.0817V10.2123H25.1552V9.9429H26.4014C26.4014 9.82861 26.3766 9.73065 26.3354 9.64085C26.2941 9.55106 26.2281 9.48575 26.1455 9.42861C26.063 9.37963 25.964 9.35514 25.8567 9.35514C25.7329 9.35514 25.6256 9.38779 25.5348 9.44494C25.444 9.50208 25.378 9.58371 25.3285 9.68167C25.279 9.77963 25.2542 9.88575 25.2542 9.99188V10.1715C25.2542 10.3266 25.279 10.449 25.3367 10.5551C25.3863 10.6613 25.4688 10.7429 25.5596 10.7919C25.6586 10.849 25.7659 10.8735 25.8897 10.8735C25.9722 10.8735 26.0465 10.8653 26.1125 10.8409C26.1785 10.8164 26.2363 10.7837 26.2858 10.7347C26.3354 10.6858 26.3684 10.6286 26.4014 10.5633L26.6985 10.6449C26.6655 10.7429 26.616 10.8327 26.5417 10.9143C26.4674 10.9878 26.3766 11.0531 26.2611 11.0939C26.129 11.1266 26.0052 11.1429 25.8732 11.1429ZM27.499 9.89392V11.1021H27.1854V9.10208H27.4825V9.41228H27.5073C27.5568 9.31432 27.6228 9.23269 27.7218 9.16739C27.8209 9.10208 27.9447 9.06943 28.0932 9.06943C28.2335 9.06943 28.3491 9.09392 28.4564 9.15106C28.5554 9.2082 28.6379 9.28983 28.6957 9.40412C28.7535 9.51841 28.7782 9.65718 28.7782 9.82861V11.1021H28.4729V9.8531C28.4729 9.698 28.4316 9.57555 28.3491 9.48575C28.2665 9.39596 28.151 9.35514 28.0107 9.35514C27.9117 9.35514 27.8209 9.37963 27.7466 9.42045C27.6723 9.46126 27.6063 9.52657 27.565 9.6082C27.5155 9.68167 27.499 9.77963 27.499 9.89392ZM30.239 9.10208V9.3633H29.1909V9.10208H30.239ZM29.4962 8.62045H29.8098V10.5307C29.8098 10.6204 29.8264 10.6858 29.8511 10.7266C29.8759 10.7674 29.9089 10.8 29.9501 10.8164C29.9914 10.8327 30.0327 10.8409 30.0822 10.8409C30.1152 10.8409 30.1482 10.8409 30.1647 10.8327C30.1895 10.8245 30.206 10.8245 30.2142 10.8245L30.2803 11.1021C30.2555 11.1102 30.2307 11.1184 30.1895 11.1266C30.1482 11.1347 30.107 11.1429 30.0492 11.1429C29.9584 11.1429 29.8759 11.1266 29.7933 11.0858C29.7108 11.0449 29.6365 10.9878 29.587 10.9143C29.5292 10.8409 29.5045 10.7429 29.5045 10.6286V8.62045H29.4962ZM30.7094 11.1021V9.10208H31.0065V9.40412H31.0313C31.0643 9.30616 31.1386 9.22453 31.2294 9.15922C31.3284 9.09392 31.4357 9.06943 31.5595 9.06943C31.5842 9.06943 31.609 9.06943 31.642 9.06943C31.675 9.06943 31.6998 9.06943 31.7163 9.06943V9.37963C31.708 9.37963 31.6833 9.37147 31.642 9.37147C31.609 9.3633 31.5677 9.3633 31.5265 9.3633C31.4274 9.3633 31.3366 9.38779 31.2624 9.42861C31.1881 9.46943 31.1221 9.52657 31.0808 9.59188C31.0395 9.66534 31.0148 9.73881 31.0148 9.83677V11.1021H30.7094ZM32.6819 11.1511C32.5498 11.1511 32.4343 11.1266 32.3352 11.0776C32.228 11.0286 32.1454 10.9551 32.0877 10.8653C32.0299 10.7755 31.9969 10.6613 31.9969 10.5307C31.9969 10.4164 32.0216 10.3266 32.0629 10.2531C32.1124 10.1796 32.1702 10.1225 32.2445 10.0817C32.3187 10.0409 32.4095 10.0082 32.5003 9.99188C32.5911 9.96739 32.6901 9.95106 32.7809 9.9429C32.9047 9.92657 33.0037 9.91841 33.078 9.91024C33.1523 9.90208 33.2101 9.88575 33.2431 9.86943C33.2761 9.8531 33.3008 9.81228 33.3008 9.7633V9.75514C33.3008 9.62453 33.2678 9.52657 33.1936 9.4531C33.1193 9.37963 33.0202 9.34698 32.8717 9.34698C32.7231 9.34698 32.6076 9.37963 32.5251 9.44494C32.4425 9.51024 32.3848 9.57555 32.3435 9.64902L32.0464 9.5429C32.0959 9.42045 32.1702 9.32249 32.261 9.25718C32.3518 9.19188 32.4425 9.1429 32.5498 9.11024C32.6571 9.08575 32.7561 9.06943 32.8634 9.06943C32.9295 9.06943 33.0037 9.07759 33.0863 9.09392C33.1688 9.11024 33.2513 9.1429 33.3339 9.18371C33.4164 9.23269 33.4824 9.298 33.5319 9.39596C33.5814 9.49392 33.6145 9.61637 33.6145 9.77963V11.1021H33.3008V10.8327H33.2843C33.2596 10.8735 33.2266 10.9225 33.177 10.9715C33.1275 11.0204 33.0615 11.0613 32.979 11.1021C32.9047 11.1347 32.7974 11.1511 32.6819 11.1511ZM32.7314 10.8735C32.8552 10.8735 32.9542 10.849 33.045 10.8C33.1275 10.7511 33.1936 10.6939 33.2348 10.6123C33.2761 10.5388 33.3008 10.4572 33.3008 10.3755V10.0898C33.2843 10.1062 33.2596 10.1225 33.2101 10.1307C33.1688 10.1388 33.1193 10.1551 33.0533 10.1633C32.9955 10.1715 32.9377 10.1796 32.8882 10.1878C32.8387 10.196 32.7892 10.196 32.7561 10.2041C32.6736 10.2123 32.5993 10.2286 32.5333 10.2531C32.4673 10.2776 32.4095 10.3102 32.3683 10.3592C32.327 10.4082 32.3022 10.4653 32.3022 10.547C32.3022 10.6531 32.3435 10.7347 32.426 10.7919C32.5086 10.849 32.6076 10.8735 32.7314 10.8735ZM34.4893 8.43269V11.1021H34.1757V8.43269H34.4893ZM36.635 11.1021L35.9005 8.43269H36.2306L36.7918 10.6123H36.8166L37.3943 8.43269H37.7657L38.3434 10.6123H38.3681L38.9294 8.43269H39.2595L38.525 11.1021H38.1866L37.5924 8.97147H37.5676L36.9734 11.1021H36.635ZM40.2911 11.1429C40.093 11.1429 39.928 11.1021 39.7877 11.0123C39.6474 10.9225 39.5401 10.8082 39.4658 10.6531C39.3915 10.498 39.3502 10.3184 39.3502 10.1143C39.3502 9.91024 39.3915 9.73065 39.4658 9.57555C39.5401 9.42045 39.6474 9.298 39.7877 9.2082C39.928 9.11841 40.0848 9.07759 40.2663 9.07759C40.3736 9.07759 40.4727 9.09392 40.5799 9.12657C40.679 9.15922 40.778 9.21637 40.8605 9.298C40.9431 9.37147 41.0091 9.47759 41.0586 9.6082C41.1081 9.73881 41.1329 9.89392 41.1329 10.0817V10.2123H39.5731V9.9429H40.8193C40.8193 9.82861 40.7945 9.73065 40.7533 9.64085C40.712 9.55106 40.646 9.48575 40.5634 9.42861C40.4809 9.37963 40.3819 9.35514 40.2746 9.35514C40.1508 9.35514 40.0435 9.38779 39.9527 9.44494C39.8619 9.50208 39.7959 9.58371 39.7464 9.68167C39.6969 9.77963 39.6721 9.88575 39.6721 9.99188V10.1715C39.6721 10.3266 39.6969 10.449 39.7546 10.5551C39.8042 10.6613 39.8784 10.7429 39.9775 10.7919C40.0683 10.849 40.1838 10.8735 40.3076 10.8735C40.3901 10.8735 40.4644 10.8653 40.5304 10.8409C40.5964 10.8164 40.6542 10.7837 40.7037 10.7347C40.7533 10.6858 40.7863 10.6286 40.8193 10.5633L41.1164 10.6449C41.0834 10.7429 41.0338 10.8327 40.9596 10.9143C40.8853 10.9878 40.7945 11.0531 40.679 11.0939C40.5552 11.1266 40.4314 11.1429 40.2911 11.1429ZM42.1975 11.1511C42.0655 11.1511 41.9499 11.1266 41.8509 11.0776C41.7436 11.0286 41.6611 10.9551 41.6033 10.8653C41.5455 10.7755 41.5125 10.6613 41.5125 10.5307C41.5125 10.4164 41.5373 10.3266 41.5785 10.2531C41.6281 10.1796 41.6858 10.1225 41.7601 10.0817C41.8344 10.0409 41.9169 10.0082 42.016 9.99188C42.1067 9.96739 42.2058 9.95106 42.2966 9.9429C42.4203 9.92657 42.5194 9.91841 42.5937 9.91024C42.6679 9.90208 42.7257 9.88575 42.7587 9.86943C42.7917 9.8531 42.8165 9.81228 42.8165 9.7633V9.75514C42.8165 9.62453 42.7835 9.52657 42.7092 9.4531C42.6349 9.37963 42.5359 9.34698 42.3873 9.34698C42.2388 9.34698 42.1232 9.37963 42.0407 9.44494C41.9582 9.51024 41.9004 9.57555 41.8591 9.64902L41.562 9.5429C41.6116 9.42045 41.6858 9.32249 41.7766 9.25718C41.8674 9.19188 41.9582 9.1429 42.0655 9.11024C42.1728 9.08575 42.2718 9.06943 42.3791 9.06943C42.4451 9.06943 42.5194 9.07759 42.6019 9.09392C42.6844 9.11024 42.767 9.1429 42.8495 9.18371C42.932 9.23269 42.9981 9.298 43.0476 9.39596C43.0971 9.49392 43.1301 9.61637 43.1301 9.77963V11.1021H42.8165V10.8327H42.8C42.7752 10.8735 42.7422 10.9225 42.6927 10.9715C42.6432 11.0204 42.5772 11.0613 42.4946 11.1021C42.4203 11.1347 42.3213 11.1511 42.1975 11.1511ZM42.247 10.8735C42.3708 10.8735 42.4699 10.849 42.5606 10.8C42.6432 10.7511 42.7092 10.6939 42.7505 10.6123C42.7917 10.5388 42.8165 10.4572 42.8165 10.3755V10.0898C42.8 10.1062 42.7752 10.1225 42.7257 10.1307C42.6844 10.1388 42.6267 10.1551 42.5689 10.1633C42.5111 10.1715 42.4534 10.1796 42.4038 10.1878C42.3543 10.196 42.3048 10.196 42.2718 10.2041C42.1893 10.2123 42.115 10.2286 42.049 10.2531C41.9829 10.2776 41.9252 10.3102 41.8839 10.3592C41.8426 10.4082 41.8179 10.4653 41.8179 10.547C41.8179 10.6531 41.8591 10.7347 41.9417 10.7919C42.0242 10.849 42.1232 10.8735 42.247 10.8735ZM44.5744 9.10208V9.3633H43.5262V9.10208H44.5744ZM43.8316 8.62045H44.1452V10.5307C44.1452 10.6204 44.1617 10.6858 44.1865 10.7266C44.2112 10.7674 44.2442 10.8 44.2855 10.8164C44.3268 10.8327 44.368 10.8409 44.4176 10.8409C44.4506 10.8409 44.4836 10.8409 44.5001 10.8327C44.5248 10.8245 44.5414 10.8245 44.5496 10.8245L44.6156 11.1021C44.5909 11.1102 44.5661 11.1184 44.5248 11.1266C44.4836 11.1347 44.4423 11.1429 44.3845 11.1429C44.2938 11.1429 44.2112 11.1266 44.1287 11.0858C44.0462 11.0449 43.9719 10.9878 43.9224 10.9143C43.8646 10.8409 43.8399 10.7429 43.8399 10.6286V8.62045H43.8316ZM45.3997 9.89392V11.1021H45.086V8.43269H45.3997V9.41228H45.4244C45.4739 9.30616 45.54 9.22453 45.639 9.16739C45.738 9.10208 45.8618 9.07759 46.0186 9.07759C46.1589 9.07759 46.2745 9.10208 46.3818 9.15922C46.489 9.21636 46.5633 9.298 46.6211 9.41228C46.6789 9.52657 46.7119 9.66534 46.7119 9.83677V11.1021H46.3983V9.8531C46.3983 9.698 46.357 9.56739 46.2745 9.48575C46.1919 9.39596 46.0764 9.35514 45.9278 9.35514C45.8288 9.35514 45.738 9.37963 45.6555 9.42045C45.573 9.46126 45.5152 9.52657 45.4657 9.6082C45.4244 9.68167 45.3997 9.77963 45.3997 9.89392ZM48.1314 11.1429C47.9333 11.1429 47.7683 11.1021 47.628 11.0123C47.4877 10.9225 47.3804 10.8082 47.3061 10.6531C47.2318 10.498 47.1905 10.3184 47.1905 10.1143C47.1905 9.91024 47.2318 9.73065 47.3061 9.57555C47.3804 9.42045 47.4877 9.298 47.628 9.2082C47.7683 9.11841 47.9251 9.07759 48.1066 9.07759C48.2139 9.07759 48.313 9.09392 48.4202 9.12657C48.5193 9.15922 48.6183 9.21637 48.7008 9.298C48.7834 9.37147 48.8494 9.47759 48.8989 9.6082C48.9484 9.73881 48.9732 9.89392 48.9732 10.0817V10.2123H47.4134V9.9429H48.6596C48.6596 9.82861 48.6348 9.73065 48.5935 9.64085C48.5523 9.55106 48.4863 9.48575 48.4037 9.42861C48.3212 9.37963 48.2222 9.35514 48.1149 9.35514C47.9911 9.35514 47.8838 9.38779 47.793 9.44494C47.7022 9.50208 47.6362 9.58371 47.5867 9.68167C47.5372 9.77963 47.5124 9.88575 47.5124 9.99188V10.1715C47.5124 10.3266 47.5372 10.449 47.5949 10.5551C47.6445 10.6613 47.7187 10.7429 47.8178 10.7919C47.9168 10.849 48.0241 10.8735 48.1479 10.8735C48.2304 10.8735 48.3047 10.8653 48.3707 10.8409C48.4367 10.8164 48.4945 10.7837 48.544 10.7347C48.5936 10.6858 48.6266 10.6286 48.6596 10.5633L48.9567 10.6449C48.9237 10.7429 48.8741 10.8327 48.7999 10.9143C48.7256 10.9878 48.6348 11.0531 48.5193 11.0939C48.3955 11.1266 48.2717 11.1429 48.1314 11.1429ZM49.4436 11.1021V9.10208H49.7407V9.40412H49.7655C49.7985 9.30616 49.8728 9.22453 49.9635 9.15922C50.0626 9.09392 50.1699 9.06943 50.2937 9.06943C50.3184 9.06943 50.3432 9.06943 50.3762 9.06943C50.4092 9.06943 50.434 9.06943 50.4505 9.06943V9.37963C50.4422 9.37963 50.4175 9.37147 50.3762 9.37147C50.3432 9.3633 50.3019 9.3633 50.2606 9.3633C50.1616 9.3633 50.0708 9.38779 49.9966 9.42861C49.9223 9.46943 49.8563 9.52657 49.815 9.59188C49.7737 9.66534 49.749 9.73881 49.749 9.83677V11.1021H49.4436ZM52.0268 11.1021H51.6802L52.6705 8.43269H53.0089L53.9992 11.1021H53.6526L52.8438 8.84902H52.8191L52.0268 11.1021ZM52.1506 10.0572H53.5288V10.3429H52.1506V10.0572ZM55.1464 11.1429C54.9813 11.1429 54.8245 11.1021 54.7007 11.0123C54.5687 10.9307 54.4696 10.8082 54.3954 10.6531C54.3211 10.498 54.2881 10.3102 54.2881 10.098C54.2881 9.88575 54.3211 9.70616 54.3954 9.55106C54.4696 9.39596 54.5687 9.27351 54.7007 9.19188C54.8328 9.11024 54.9813 9.06943 55.1546 9.06943C55.2867 9.06943 55.394 9.09392 55.4683 9.13473C55.5425 9.17555 55.6086 9.22453 55.6416 9.28167C55.6828 9.33881 55.7158 9.37963 55.7406 9.41228H55.7654V8.42453H56.079V11.1021H55.7819V10.7919H55.7489C55.7241 10.8245 55.6911 10.8735 55.6498 10.9307C55.6086 10.9878 55.5508 11.0368 55.4683 11.0776C55.3775 11.1184 55.2784 11.1429 55.1464 11.1429ZM55.1877 10.8653C55.3115 10.8653 55.4187 10.8327 55.5013 10.7674C55.5838 10.7021 55.6498 10.6123 55.6993 10.498C55.7406 10.3837 55.7654 10.2449 55.7654 10.098C55.7654 9.95106 55.7406 9.82045 55.6993 9.70616C55.6581 9.59188 55.592 9.50208 55.5013 9.44494C55.4187 9.37963 55.3114 9.34698 55.1794 9.34698C55.0474 9.34698 54.9401 9.37963 54.8493 9.44494C54.7585 9.51024 54.7007 9.60004 54.6512 9.71432C54.61 9.82861 54.5852 9.95106 54.5852 10.098C54.5852 10.2368 54.61 10.3674 54.6512 10.4898C54.6925 10.6041 54.7585 10.6939 54.8493 10.7674C54.9483 10.8327 55.0556 10.8653 55.1877 10.8653ZM56.6897 11.1021V9.10208H56.9868V9.41228H57.0116C57.0528 9.30616 57.1188 9.22453 57.2179 9.15922C57.3087 9.10208 57.4242 9.06943 57.5563 9.06943C57.6883 9.06943 57.8038 9.10208 57.8864 9.15922C57.9772 9.21636 58.0432 9.298 58.0927 9.41228H58.1175C58.167 9.30616 58.2495 9.22453 58.3485 9.16739C58.4558 9.10208 58.5796 9.07759 58.7199 9.07759C58.9015 9.07759 59.05 9.13473 59.1656 9.24902C59.2811 9.3633 59.3389 9.53473 59.3389 9.77147V11.1021H59.0253V9.7633C59.0253 9.61637 58.984 9.51024 58.9015 9.44494C58.819 9.37963 58.7199 9.34698 58.6126 9.34698C58.4723 9.34698 58.3568 9.38779 58.2825 9.47759C58.2082 9.55922 58.167 9.66534 58.167 9.79596V11.1021H57.8534V9.73065C57.8534 9.61636 57.8121 9.52657 57.7378 9.4531C57.6635 9.37963 57.5645 9.34698 57.449 9.34698C57.3664 9.34698 57.2922 9.37147 57.2261 9.41228C57.1601 9.4531 57.1023 9.51024 57.0611 9.59188C57.0198 9.66534 56.995 9.75514 56.995 9.8531V11.1021H56.6897ZM59.9166 11.1021V9.10208H60.2302V11.1021H59.9166ZM60.0734 8.76739C60.0156 8.76739 59.9579 8.7429 59.9166 8.70208C59.8753 8.66126 59.8506 8.61228 59.8506 8.55514C59.8506 8.498 59.8753 8.44902 59.9166 8.4082C59.9579 8.36739 60.0156 8.3429 60.0734 8.3429C60.1312 8.3429 60.1889 8.35922 60.2302 8.4082C60.2715 8.44902 60.2962 8.498 60.2962 8.55514C60.2962 8.61228 60.2715 8.66126 60.2302 8.70208C60.1889 8.7429 60.1312 8.76739 60.0734 8.76739ZM61.105 9.89392V11.1021H60.7914V9.10208H61.0885V9.41228H61.1133C61.1628 9.31432 61.2288 9.23269 61.3278 9.16739C61.4269 9.10208 61.5507 9.06943 61.6992 9.06943C61.8395 9.06943 61.9551 9.09392 62.0624 9.15106C62.1614 9.2082 62.2439 9.28983 62.3017 9.40412C62.3595 9.51841 62.3842 9.65718 62.3842 9.82861V11.1021H62.0706V9.8531C62.0706 9.698 62.0293 9.57555 61.9468 9.48575C61.8643 9.39596 61.7487 9.35514 61.6084 9.35514C61.5094 9.35514 61.4186 9.37963 61.3444 9.42045C61.2701 9.46126 61.2041 9.52657 61.1628 9.6082C61.1298 9.68167 61.105 9.77963 61.105 9.89392ZM62.9702 11.1021V9.10208H63.2838V11.1021H62.9702ZM63.127 8.76739C63.0692 8.76739 63.0114 8.7429 62.9702 8.70208C62.9289 8.66126 62.9042 8.61228 62.9042 8.55514C62.9042 8.498 62.9289 8.44902 62.9702 8.4082C63.0114 8.36739 63.0692 8.3429 63.127 8.3429C63.1848 8.3429 63.2425 8.35922 63.2838 8.4082C63.3251 8.44902 63.3498 8.498 63.3498 8.55514C63.3498 8.61228 63.3251 8.66126 63.2838 8.70208C63.2425 8.7429 63.1848 8.76739 63.127 8.76739ZM65.2893 9.55106L65.0087 9.63269C64.9922 9.58371 64.9674 9.5429 64.9344 9.50208C64.9014 9.46126 64.8519 9.42045 64.7941 9.39596C64.7363 9.3633 64.662 9.35514 64.5713 9.35514C64.4475 9.35514 64.3402 9.37963 64.2576 9.43677C64.1751 9.49392 64.1338 9.56739 64.1338 9.64902C64.1338 9.72249 64.1586 9.78779 64.2164 9.82861C64.2741 9.86943 64.3567 9.91024 64.4805 9.9429L64.7776 10.0164C64.9591 10.0572 65.0912 10.1225 65.182 10.2123C65.2728 10.3021 65.314 10.4164 65.314 10.5551C65.314 10.6694 65.281 10.7755 65.215 10.8653C65.149 10.9551 65.0582 11.0286 64.9344 11.0776C64.8188 11.1266 64.6785 11.1592 64.5217 11.1592C64.3154 11.1592 64.1421 11.1184 64.0101 11.0286C63.878 10.9388 63.7872 10.8082 63.7542 10.6368L64.0513 10.5633C64.0761 10.6694 64.1339 10.7511 64.2081 10.8082C64.2907 10.8653 64.3897 10.8898 64.5217 10.8898C64.6703 10.8898 64.7858 10.8572 64.8684 10.8C64.9509 10.7347 65.0004 10.6613 65.0004 10.5796C65.0004 10.5062 64.9757 10.449 64.9261 10.4082C64.8766 10.3592 64.8023 10.3266 64.7033 10.3021L64.3649 10.2204C64.1834 10.1796 64.0431 10.1062 63.9523 10.0164C63.8698 9.92657 63.8202 9.81228 63.8202 9.67351C63.8202 9.55922 63.8532 9.46126 63.9193 9.37147C63.9853 9.28167 64.0761 9.21637 64.1834 9.16739C64.2989 9.11841 64.4227 9.09392 64.563 9.09392C64.7611 9.09392 64.9179 9.13473 65.0334 9.22453C65.1572 9.28983 65.2397 9.40412 65.2893 9.55106ZM66.6758 9.10208V9.3633H65.6276V9.10208H66.6758ZM65.9247 8.62045H66.2383V10.5307C66.2383 10.6204 66.2549 10.6858 66.2796 10.7266C66.3044 10.7674 66.3374 10.8 66.3787 10.8164C66.4199 10.8327 66.4612 10.8409 66.5107 10.8409C66.5437 10.8409 66.5767 10.8409 66.5932 10.8327C66.618 10.8245 66.6345 10.8245 66.6427 10.8245L66.7088 11.1021C66.684 11.1102 66.6593 11.1184 66.618 11.1266C66.5767 11.1347 66.5355 11.1429 66.4777 11.1429C66.3869 11.1429 66.3044 11.1266 66.2218 11.0858C66.1393 11.0449 66.065 10.9878 66.0155 10.9143C65.9578 10.8409 65.933 10.7429 65.933 10.6286V8.62045H65.9247ZM67.1379 11.1021V9.10208H67.435V9.40412H67.4598C67.4928 9.30616 67.5671 9.22453 67.6579 9.15922C67.7569 9.09392 67.8642 9.06943 67.988 9.06943C68.0127 9.06943 68.0375 9.06943 68.0705 9.06943C68.1035 9.06943 68.1283 9.06943 68.1448 9.06943V9.37963C68.1365 9.37963 68.1118 9.37147 68.0705 9.37147C68.0375 9.3633 67.9962 9.3633 67.955 9.3633C67.8559 9.3633 67.7652 9.38779 67.6909 9.42861C67.6166 9.46943 67.5506 9.52657 67.5093 9.59188C67.468 9.66534 67.4433 9.73881 67.4433 9.83677V11.1021H67.1379ZM69.1186 11.1511C68.9866 11.1511 68.871 11.1266 68.772 11.0776C68.6647 11.0286 68.5822 10.9551 68.5244 10.8653C68.4666 10.7755 68.4336 10.6613 68.4336 10.5307C68.4336 10.4164 68.4584 10.3266 68.4997 10.2531C68.5492 10.1796 68.607 10.1225 68.6812 10.0817C68.7555 10.0409 68.838 10.0082 68.9371 9.99188C69.0279 9.96739 69.1269 9.95106 69.2177 9.9429C69.3415 9.92657 69.4405 9.91841 69.5148 9.91024C69.5891 9.90208 69.6468 9.88575 69.6798 9.86943C69.7128 9.8531 69.7376 9.81228 69.7376 9.7633V9.75514C69.7376 9.62453 69.7046 9.52657 69.6303 9.4531C69.556 9.37963 69.457 9.34698 69.3084 9.34698C69.1599 9.34698 69.0443 9.37963 68.9618 9.44494C68.8793 9.51024 68.8215 9.57555 68.7803 9.64902L68.4832 9.5429C68.5327 9.42045 68.6069 9.32249 68.6977 9.25718C68.7885 9.19188 68.8793 9.1429 68.9866 9.11024C69.0939 9.08575 69.1929 9.06943 69.3002 9.06943C69.3662 9.06943 69.4405 9.07759 69.523 9.09392C69.6056 9.11024 69.6881 9.1429 69.7706 9.18371C69.8531 9.23269 69.9192 9.298 69.9687 9.39596C70.0182 9.49392 70.0512 9.61637 70.0512 9.77963V11.1021H69.7376V10.8327H69.7211C69.6963 10.8735 69.6633 10.9225 69.6138 10.9715C69.5643 11.0204 69.4983 11.0613 69.4157 11.1021C69.3332 11.1347 69.2342 11.1511 69.1186 11.1511ZM69.1681 10.8735C69.2919 10.8735 69.391 10.849 69.4818 10.8C69.5643 10.7511 69.6303 10.6939 69.6716 10.6123C69.7128 10.5388 69.7376 10.4572 69.7376 10.3755V10.0898C69.7211 10.1062 69.6963 10.1225 69.6468 10.1307C69.6056 10.1388 69.5478 10.1551 69.49 10.1633C69.4322 10.1715 69.3745 10.1796 69.325 10.1878C69.2754 10.196 69.2259 10.196 69.1929 10.2041C69.1104 10.2123 69.0361 10.2286 68.9701 10.2531C68.9041 10.2776 68.8463 10.3102 68.805 10.3592C68.7638 10.4082 68.739 10.4653 68.739 10.547C68.739 10.6531 68.7803 10.7347 68.8628 10.7919C68.9371 10.849 69.0443 10.8735 69.1681 10.8735ZM71.4955 9.10208V9.3633H70.4473V9.10208H71.4955ZM70.7527 8.62045H71.0663V10.5307C71.0663 10.6204 71.0828 10.6858 71.1076 10.7266C71.1323 10.7674 71.1654 10.8 71.2066 10.8164C71.2479 10.8327 71.2892 10.8409 71.3387 10.8409C71.3717 10.8409 71.4047 10.8409 71.4212 10.8327C71.446 10.8245 71.4625 10.8245 71.4707 10.8245L71.5367 11.1021C71.512 11.1102 71.4872 11.1184 71.446 11.1266C71.4047 11.1347 71.3634 11.1429 71.3057 11.1429C71.2149 11.1429 71.1323 11.1266 71.0498 11.0858C70.9673 11.0449 70.893 10.9878 70.8435 10.9143C70.7857 10.8409 70.761 10.7429 70.761 10.6286V8.62045H70.7527ZM71.9659 11.1021V9.10208H72.2795V11.1021H71.9659ZM72.1227 8.76739C72.0649 8.76739 72.0072 8.7429 71.9659 8.70208C71.9246 8.66126 71.8999 8.61228 71.8999 8.55514C71.8999 8.498 71.9246 8.44902 71.9659 8.4082C72.0072 8.36739 72.0649 8.3429 72.1227 8.3429C72.1805 8.3429 72.2382 8.35922 72.2795 8.4082C72.3208 8.44902 72.3455 8.498 72.3455 8.55514C72.3455 8.61228 72.3208 8.66126 72.2795 8.70208C72.2382 8.7429 72.1805 8.76739 72.1227 8.76739ZM73.666 11.1429C73.4844 11.1429 73.3194 11.1021 73.1873 11.0123C73.047 10.9225 72.9397 10.8082 72.8655 10.6531C72.7912 10.498 72.7499 10.3184 72.7499 10.1143C72.7499 9.90208 72.7912 9.72249 72.8655 9.56739C72.9397 9.41228 73.047 9.28983 73.1873 9.2082C73.3276 9.11841 73.4844 9.07759 73.666 9.07759C73.8476 9.07759 74.0126 9.11841 74.1447 9.2082C74.285 9.298 74.3923 9.41228 74.4665 9.56739C74.5408 9.72249 74.5821 9.90208 74.5821 10.1143C74.5821 10.3184 74.5408 10.5062 74.4665 10.6531C74.3923 10.8082 74.285 10.9307 74.1447 11.0123C74.0126 11.1021 73.8476 11.1429 73.666 11.1429ZM73.666 10.8653C73.8063 10.8653 73.9218 10.8327 74.0126 10.7592C74.1034 10.6858 74.1694 10.596 74.2107 10.4817C74.252 10.3674 74.2767 10.2449 74.2767 10.1062C74.2767 9.97555 74.252 9.84494 74.2107 9.73065C74.1694 9.61636 74.1034 9.51841 74.0126 9.4531C73.9218 9.37963 73.8063 9.34698 73.666 9.34698C73.5257 9.34698 73.4102 9.37963 73.3194 9.4531C73.2286 9.52657 73.1626 9.61636 73.1213 9.73065C73.08 9.84494 73.0553 9.96739 73.0553 10.1062C73.0553 10.2368 73.08 10.3674 73.1213 10.4817C73.1626 10.596 73.2286 10.6858 73.3194 10.7592C73.4184 10.8327 73.5257 10.8653 73.666 10.8653ZM75.3744 9.89392V11.1021H75.0607V9.10208H75.3579V9.41228H75.3826C75.4321 9.31432 75.4982 9.23269 75.5972 9.16739C75.6962 9.10208 75.82 9.06943 75.9686 9.06943C76.1089 9.06943 76.2244 9.09392 76.3317 9.15106C76.4307 9.2082 76.5133 9.28983 76.571 9.40412C76.6288 9.51841 76.6536 9.65718 76.6536 9.82861V11.1021H76.34V9.8531C76.34 9.698 76.2987 9.57555 76.2162 9.48575C76.1336 9.39596 76.0181 9.35514 75.8778 9.35514C75.7788 9.35514 75.688 9.37963 75.6137 9.42045C75.5394 9.46126 75.4734 9.52657 75.4321 9.6082C75.3909 9.68167 75.3744 9.77963 75.3744 9.89392Z" fill="#C99477"/>
<path d="M26.3933 3.79596L26.938 3.9429C26.1952 5.81228 24.7015 6.7429 22.63 7.25718C22.5722 7.12657 22.4154 6.90616 22.3081 6.78371C24.3466 6.35922 25.7743 5.48575 26.3933 3.79596ZM24.1898 2.64494L24.7015 2.84086C24.2228 3.48575 23.4635 4.11433 22.8033 4.52249C22.7125 4.41637 22.5227 4.21228 22.3906 4.12249C23.0591 3.77147 23.7771 3.21637 24.1898 2.64494ZM24.4621 3.82861C25.0893 5.41228 26.4676 6.41637 28.5638 6.75106C28.4483 6.86535 28.2997 7.09392 28.2255 7.23269C26.0632 6.82453 24.7097 5.75514 23.9835 3.97555L24.4621 3.82861ZM22.4484 1.95106H28.3905V2.44086H22.4484V1.95106ZM25.1389 1.06126H25.6588V2.26126H25.1389V1.06126ZM26.2118 2.92249L26.6327 2.61228C27.2681 3.03677 28.0687 3.65718 28.4566 4.098L28.0191 4.44902C27.6478 4.0082 26.8637 3.3633 26.2118 2.92249ZM30.6848 3.71432V6.08167H30.2062V4.17963H29.2158V3.71432H30.6848ZM30.6848 5.88575C31.015 6.38371 31.6009 6.61228 32.3932 6.63677C33.136 6.66943 34.704 6.6531 35.5128 6.59596C35.4551 6.71024 35.3808 6.94698 35.3478 7.09392C34.5967 7.12657 33.1525 7.1429 32.3932 7.11024C31.5101 7.07759 30.8912 6.84086 30.4703 6.31024C30.1236 6.59596 29.7605 6.88983 29.3726 7.18371L29.125 6.68575C29.4634 6.48167 29.8843 6.17963 30.2392 5.88575H30.6848ZM29.3314 1.5429L29.6862 1.22453C30.1154 1.52657 30.6271 1.98371 30.8499 2.31024L30.462 2.66126C30.2474 2.32657 29.7605 1.8531 29.3314 1.5429ZM32.0383 2.19596L32.3602 1.91841C32.9957 2.13881 33.8457 2.50616 34.2996 2.77555L33.953 3.09392C33.5321 2.82453 32.6903 2.44086 32.0383 2.19596ZM31.3946 2.75922H34.8938V3.15106H31.8733V6.22861H31.3946V2.75922ZM34.6463 2.75922H35.1332V5.72249C35.1332 5.96739 35.0837 6.08167 34.9021 6.15514C34.7288 6.23677 34.4399 6.23677 33.986 6.23677C33.9695 6.10616 33.9035 5.93473 33.8457 5.82045C34.1676 5.83677 34.4482 5.82861 34.539 5.82861C34.6298 5.82861 34.6463 5.80412 34.6463 5.71432V2.75922ZM31.3946 1.35514H34.7701V1.75514H31.3946V1.35514ZM31.6587 3.73881H34.8443V4.11433H31.6587V3.73881ZM31.6587 4.71841H34.8443V5.11024H31.6587V4.71841ZM33.0122 2.92249H33.4743V6.20412H33.0122V2.92249ZM34.605 1.35514H34.7205L34.8278 1.33065L35.1414 1.57555C34.6875 2.00004 34.0025 2.4082 33.3918 2.66943C33.3258 2.57963 33.1937 2.44902 33.1195 2.37555C33.6724 2.1633 34.3079 1.77147 34.605 1.46126V1.35514ZM39.9034 1.46943H41.9336V1.9429H40.3986V7.23269H39.9034V1.46943ZM36.2969 1.81228H39.532V2.26126H36.2969V1.81228ZM36.1153 3.66535H39.6145V4.13065H36.1153V3.66535ZM37.6586 1.09392H38.1538V2.08167H37.6586V1.09392ZM36.7178 2.498L37.1469 2.4082C37.2955 2.7429 37.4275 3.19188 37.4688 3.48575L37.0149 3.59188C36.9736 3.28984 36.8581 2.84086 36.7178 2.498ZM38.6572 2.35922L39.1441 2.47351C38.9956 2.86535 38.8305 3.31433 38.682 3.6082L38.2776 3.50208C38.4096 3.19188 38.5747 2.69392 38.6572 2.35922ZM36.759 6.40004H38.9873V6.84902H36.759V6.40004ZM36.5692 4.71024H39.2349V7.20004H38.748V5.15922H37.0396V7.23269H36.5692V4.71024ZM41.7933 1.46943H41.8924L41.9749 1.4531L42.3463 1.68984C42.0657 2.31841 41.719 3.09392 41.4054 3.71432C42.0904 4.33473 42.2472 4.86535 42.2555 5.34698C42.2555 5.75514 42.1647 6.07351 41.9254 6.22861C41.8016 6.30208 41.653 6.35106 41.4797 6.37555C41.3146 6.39188 41.0836 6.39188 40.8937 6.38371C40.8855 6.24494 40.836 6.03269 40.7534 5.88575C40.9515 5.90208 41.1496 5.90208 41.2816 5.90208C41.3972 5.89392 41.488 5.86943 41.5705 5.82045C41.719 5.73065 41.7686 5.5429 41.7686 5.28984C41.7603 4.86535 41.5622 4.36739 40.8855 3.77963C41.2321 3.09392 41.5952 2.1633 41.8016 1.64086V1.46943H41.7933ZM43.3944 2.26943H48.8496V5.42045H48.3214V2.76739H43.9061V5.46126H43.3944V2.26943ZM43.6667 4.54698H48.6268V5.03677H43.6667V4.54698ZM45.8455 1.06943H46.3737V7.22453H45.8455V1.06943ZM49.9885 4.22045H56.0627V4.71841H49.9885V4.22045ZM50.7395 2.0082H55.3612V4.43269H54.833V2.498H51.2512V4.43269H50.7395V2.0082ZM53.3474 4.30208C53.7601 5.6082 54.6927 6.44902 56.2195 6.76739C56.1039 6.87351 55.9636 7.08575 55.8893 7.22453C54.3048 6.83269 53.3639 5.90208 52.8853 4.41637L53.3474 4.30208ZM52.7367 1.06943H53.2484V3.21637C53.2484 4.75922 52.9183 6.35922 50.2196 7.24086C50.1701 7.11024 50.038 6.91432 49.939 6.8082C52.4479 6.00004 52.7367 4.57963 52.7367 3.21637V1.06943ZM58.1837 1.68984H62.7888V2.08984H58.1837V1.68984ZM58.2167 2.51433H62.2689V2.90616H58.2167V2.51433ZM57.5152 3.33881H61.5509V3.73881H57.5152V3.33881ZM57.086 5.06943H61.1712V5.46943H57.086V5.06943ZM58.3157 1.06126L58.8522 1.19188C58.489 2.07351 57.8948 2.88984 57.2841 3.41228C57.1851 3.32249 56.9457 3.16739 56.8137 3.09392C57.4409 2.62045 58.0021 1.86943 58.3157 1.06126ZM61.3776 3.33881H61.881C61.9057 5.08575 62.0543 6.73473 62.5412 6.73473C62.665 6.73473 62.7063 6.35106 62.7145 5.7633C62.8053 5.87759 62.9539 6.0082 63.0612 6.06535C63.0199 6.898 62.9126 7.23269 62.5082 7.23269C61.5674 7.23269 61.4271 5.52657 61.3776 3.33881ZM57.5482 4.1633L57.9361 4.00004C58.1672 4.2531 58.3982 4.60412 58.4808 4.84086L58.0681 5.01228C57.9856 4.77555 57.771 4.42453 57.5482 4.1633ZM59.0915 5.81228L59.4134 5.53473C59.9911 5.84494 60.7256 6.31024 61.1052 6.62861L60.7668 6.94698C60.4037 6.61228 59.6692 6.13065 59.0915 5.81228ZM58.9017 3.88575H59.3803V7.21637H58.9017V3.88575ZM60.3789 3.96739L60.8246 4.13065C60.577 4.44902 60.3047 4.80004 60.0901 5.02861L59.7517 4.88984C59.9663 4.63677 60.2304 4.23677 60.3789 3.96739ZM58.7614 5.22453L59.141 5.37147C58.7119 6.05718 57.9113 6.7429 57.2346 7.10208C57.1603 6.99596 57.0117 6.82453 56.9127 6.73473C57.5812 6.43269 58.357 5.82045 58.7614 5.22453ZM65.6691 4.44902L65.9992 4.19596C67.6168 5.11024 67.7653 6.61228 67.0721 7.06126C66.8493 7.20004 66.6759 7.24902 66.3954 7.24902C66.2468 7.24902 66.0405 7.24086 65.8424 7.23269C65.8341 7.10208 65.7846 6.91432 65.7021 6.77555C65.9332 6.80004 66.1643 6.80004 66.3128 6.80004C66.4779 6.80004 66.6264 6.78371 66.7502 6.69392C67.2041 6.40004 67.0556 5.26535 65.6691 4.44902ZM66.3706 4.66943L66.7255 4.85718C66.1313 5.33065 65.0501 5.78779 64.2166 5.99188C64.1505 5.88575 64.0185 5.72249 63.936 5.64086C64.7613 5.46943 65.8259 5.07759 66.3706 4.66943ZM66.8245 5.28167L67.1876 5.48575C66.4614 6.17147 65.1574 6.80004 64.1175 7.10208C64.0515 6.99596 63.9112 6.82453 63.8122 6.71841C64.8768 6.45718 66.156 5.88575 66.8245 5.28167ZM65.5123 1.51841H67.5095V1.91841H65.5123V1.51841ZM66.7585 3.66535L67.1546 3.8531C66.4119 4.37555 65.1822 4.80004 64.1671 5.04494C64.1093 4.95514 63.9772 4.76739 63.8947 4.67759C64.9098 4.48167 66.09 4.10616 66.7585 3.66535ZM67.3444 3.75514C67.7406 5.11841 68.6071 6.18779 69.9359 6.61228C69.8286 6.70208 69.68 6.88983 69.614 7.02861C68.2358 6.51432 67.3692 5.38779 66.9235 3.8531L67.3444 3.75514ZM69.3086 4.04086L69.7213 4.3429C69.2014 4.70208 68.4999 5.12657 67.9634 5.37147L67.6415 5.11024C68.1615 4.85718 68.896 4.39188 69.3086 4.04086ZM65.0089 2.8082V3.57555H68.7144V2.8082H65.0089ZM64.5302 2.42453H69.2096V3.96739H64.5302V2.42453ZM65.7021 1.0531L66.2303 1.15922C65.7599 1.82861 65.0749 2.53065 64.1423 3.09392C64.068 2.97963 63.903 2.81637 63.7957 2.7429C64.6787 2.26126 65.339 1.60004 65.7021 1.0531ZM66.5687 2.61228H67.0721V3.80412H66.5687V2.61228ZM67.3197 1.51841H67.427L67.5095 1.50208L67.8561 1.72249C67.6415 2.098 67.2784 2.52249 66.9813 2.78371C66.8905 2.71841 66.7255 2.61228 66.6099 2.54698C66.8905 2.30208 67.1876 1.89392 67.3197 1.61637V1.51841ZM74.7556 1.70616V2.35922H75.9027V1.70616H74.7556ZM73.1545 1.70616V2.35922H74.2769V1.70616H73.1545ZM71.6112 1.70616V2.35922H72.6923V1.70616H71.6112ZM71.116 1.33881H76.3979V2.72657H71.116V1.33881ZM70.7364 4.10616H76.761V4.52249H70.7364V4.10616ZM71.4131 3.19188H75.3085V3.59188H71.4131V3.19188ZM72.4118 5.78779H75.845V6.13881H72.4118V5.78779ZM72.3952 6.62861H75.8367V7.01228H72.3952V6.62861ZM76.0018 2.95514L76.4062 3.2082C75.0774 4.498 72.9069 5.35514 70.8437 5.86126C70.7942 5.75514 70.6704 5.53473 70.5878 5.43677C72.6511 4.98779 74.7886 4.14698 76.0018 2.95514ZM73.2866 2.72657H73.7817V4.30208H73.2866V2.72657ZM72.6263 4.97147H75.878V5.34698H72.6263V7.22453H72.1559V5.26535L72.4448 4.97963H72.6263V4.97147ZM75.6386 4.97147H76.1256V7.2082H75.6386V4.97147Z" fill="#C99477"/>
</g>
<defs>
<clipPath id="clip0_2161_696">
<rect width="77" height="12" fill="white"/>
</clipPath>
</defs>
</svg>
