<svg width="157" height="28" viewBox="0 0 157 28" fill="none" xmlns="http://www.w3.org/2000/svg">
<path d="M0 8C0 3.58172 3.58172 0 8 0H20C24.4183 0 28 3.58172 28 8V26C28 27.1046 27.1046 28 26 28H8C3.58172 28 0 24.4183 0 20V8Z" fill="#A85934" fill-opacity="0.9"/>
<path d="M12.5356 21.875C11.9834 21.875 11.5356 21.4273 11.5356 20.875V19.8757C11.5356 19.5384 11.8091 19.265 12.1463 19.265C12.4836 19.265 12.757 18.9916 12.757 18.6543V9.34568C12.757 9.00841 12.4836 8.735 12.1463 8.735C11.8091 8.735 11.5356 8.46159 11.5356 8.12432V7.125C11.5356 6.57271 11.9834 6.125 12.5356 6.125L17.9888 6.125C18.961 6.125 19.8041 6.29 20.5181 6.62C21.2472 6.935 21.8093 7.3925 22.2043 7.9925C22.6144 8.5775 22.8195 9.2825 22.8195 10.1075V10.3325C22.8195 11.0525 22.6828 11.645 22.4093 12.11C22.1359 12.56 21.8093 12.9125 21.4295 13.1675C21.1324 13.3631 20.8454 13.5139 20.5684 13.6198C20.4583 13.6619 20.3813 13.7652 20.3813 13.8831C20.3813 14.0052 20.4637 14.1109 20.5788 14.1515C20.8578 14.2498 21.1566 14.4018 21.4751 14.6075C21.8701 14.8475 22.2043 15.2 22.4777 15.665C22.7663 16.13 22.9106 16.7375 22.9106 17.4875V17.7125C22.9106 18.5825 22.7056 19.3325 22.2954 19.9625C21.8853 20.5775 21.3156 21.05 20.5864 21.38C19.8725 21.71 19.0369 21.875 18.0799 21.875H12.5356ZM15.7648 18.175C15.7648 18.7273 16.2125 19.175 16.7648 19.175H17.7153C18.3685 19.175 18.8926 19.0175 19.2876 18.7025C19.6978 18.3875 19.9028 17.9375 19.9028 17.3525V17.1275C19.9028 16.5425 19.7053 16.0925 19.3104 15.7775C18.9154 15.4625 18.3837 15.305 17.7153 15.305H16.7648C16.2125 15.305 15.7648 15.7527 15.7648 16.305V18.175ZM15.7648 11.605C15.7648 12.1573 16.2125 12.605 16.7648 12.605H17.6698C18.2926 12.605 18.8015 12.4475 19.1965 12.1325C19.6066 11.8175 19.8117 11.3825 19.8117 10.8275V10.6025C19.8117 10.0325 19.6142 9.5975 19.2192 9.2975C18.8243 8.9825 18.3078 8.825 17.6698 8.825H16.7648C16.2125 8.825 15.7648 9.27272 15.7648 9.825V11.605Z" fill="#F4E6CD" fill-opacity="0.9"/>
<path d="M6.25 21.875C5.69772 21.875 5.25 21.4273 5.25 20.875V7.125C5.25 6.57272 5.69772 6.125 6.25 6.125H7.33588C7.88816 6.125 8.33588 6.57272 8.33588 7.125V11.6275C8.33588 12.1798 8.78359 12.6275 9.33588 12.6275H11.6641C12.2164 12.6275 12.6641 12.1798 12.6641 11.6275V7.125C12.6641 6.57272 13.1118 6.125 13.6641 6.125H14.75C15.3023 6.125 15.75 6.57272 15.75 7.125V20.875C15.75 21.4273 15.3023 21.875 14.75 21.875H13.6641C13.1118 21.875 12.6641 21.4273 12.6641 20.875V16.3275C12.6641 15.7752 12.2164 15.3275 11.6641 15.3275H9.33588C8.78359 15.3275 8.33588 15.7752 8.33588 16.3275V20.875C8.33588 21.4273 7.88816 21.875 7.33588 21.875H6.25Z" fill="#C99477" fill-opacity="0.9"/>
<path d="M34 15.31V13.7672H35.2236V7.5428H34V6H38.788C39.3555 6 39.8476 6.09753 40.2643 6.2926C40.6899 6.4788 41.018 6.74923 41.2485 7.1039C41.4879 7.4497 41.6076 7.86643 41.6076 8.3541V8.4871C41.6076 8.9127 41.5278 9.26293 41.3682 9.5378C41.2086 9.8038 41.018 10.0122 40.7963 10.1629C40.5835 10.3048 40.3796 10.4067 40.1845 10.4688V10.7082C40.3796 10.7614 40.5924 10.8634 40.8229 11.0141C41.0534 11.156 41.2485 11.3643 41.4081 11.6392C41.5766 11.9141 41.6608 12.2732 41.6608 12.7165V12.8495C41.6608 13.3638 41.5411 13.8071 41.3017 14.1795C41.0623 14.543 40.7298 14.8223 40.3042 15.0174C39.8875 15.2125 39.3998 15.31 38.8412 15.31H34ZM36.9792 13.714H38.6284C39.0097 13.714 39.3156 13.6209 39.5461 13.4347C39.7855 13.2485 39.9052 12.9825 39.9052 12.6367V12.5037C39.9052 12.1579 39.7899 11.8919 39.5594 11.7057C39.3289 11.5195 39.0185 11.4264 38.6284 11.4264H36.9792V13.714ZM36.9792 9.8304H38.6018C38.9653 9.8304 39.2624 9.7373 39.4929 9.5511C39.7323 9.3649 39.852 9.10777 39.852 8.7797V8.6467C39.852 8.30977 39.7367 8.05263 39.5062 7.8753C39.2757 7.6891 38.9742 7.596 38.6018 7.596H36.9792V9.8304Z" fill="#F4E6CD"/>
<path d="M43.1512 15.31V8.7132H44.8004V9.458H45.0398C45.1374 9.192 45.297 8.99693 45.5186 8.8728C45.7492 8.74867 46.0152 8.6866 46.3166 8.6866H47.1146V10.1762H46.29C45.8644 10.1762 45.5142 10.2915 45.2393 10.522C44.9645 10.7437 44.827 11.0895 44.827 11.5594V15.31H43.1512Z" fill="#F4E6CD"/>
<path d="M51.3295 15.4962C50.6734 15.4962 50.0837 15.3632 49.5606 15.0972C49.0375 14.8312 48.6252 14.4455 48.3237 13.9401C48.0222 13.4347 47.8715 12.8273 47.8715 12.118V11.9052C47.8715 11.1959 48.0222 10.5885 48.3237 10.0831C48.6252 9.5777 49.0375 9.192 49.5606 8.926C50.0837 8.66 50.6734 8.527 51.3295 8.527C51.9856 8.527 52.5753 8.66 53.0984 8.926C53.6215 9.192 54.0338 9.5777 54.3353 10.0831C54.6368 10.5885 54.7875 11.1959 54.7875 11.9052V12.118C54.7875 12.8273 54.6368 13.4347 54.3353 13.9401C54.0338 14.4455 53.6215 14.8312 53.0984 15.0972C52.5753 15.3632 51.9856 15.4962 51.3295 15.4962ZM51.3295 14.0066C51.8438 14.0066 52.2693 13.8426 52.6063 13.5145C52.9432 13.1776 53.1117 12.6988 53.1117 12.0781V11.9451C53.1117 11.3244 52.9432 10.8501 52.6063 10.522C52.2782 10.1851 51.8526 10.0166 51.3295 10.0166C50.8152 10.0166 50.3896 10.1851 50.0527 10.522C49.7158 10.8501 49.5473 11.3244 49.5473 11.9451V12.0781C49.5473 12.6988 49.7158 13.1776 50.0527 13.5145C50.3896 13.8426 50.8152 14.0066 51.3295 14.0066Z" fill="#F4E6CD"/>
<path d="M56.8404 15.31L55.9094 8.7132H57.5719L58.1571 14.1795H58.3965L59.2477 8.7132H61.9343L62.7855 14.1795H63.0249L63.6101 8.7132H65.2726L64.3416 15.31H61.5619L60.7107 9.8437H60.4713L59.6201 15.31H56.8404Z" fill="#F4E6CD"/>
<path d="M69.4777 15.4962C68.6177 15.4962 67.9128 15.31 67.3631 14.9376C66.8133 14.5652 66.4808 14.0332 66.3656 13.3416L67.9084 12.9426C67.9704 13.2529 68.0724 13.4968 68.2142 13.6741C68.365 13.8514 68.5468 13.98 68.7596 14.0598C68.9812 14.1307 69.2206 14.1662 69.4777 14.1662C69.8679 14.1662 70.1561 14.0997 70.3423 13.9667C70.5285 13.8248 70.6216 13.6519 70.6216 13.448C70.6216 13.2441 70.5329 13.0889 70.3555 12.9825C70.1782 12.8672 69.8945 12.7741 69.5044 12.7032L69.132 12.6367C68.6709 12.548 68.2497 12.4283 67.8685 12.2776C67.4872 12.118 67.1813 11.9008 66.9507 11.6259C66.7202 11.351 66.6049 10.9964 66.6049 10.5619C66.6049 9.90577 66.8444 9.4048 67.3232 9.059C67.802 8.70433 68.4315 8.527 69.2118 8.527C69.9477 8.527 70.5595 8.69103 71.0471 9.0191C71.5348 9.34717 71.854 9.7772 72.0048 10.3092L70.4487 10.788C70.3777 10.4511 70.2314 10.2117 70.0098 10.0698C69.797 9.92793 69.531 9.857 69.2118 9.857C68.8926 9.857 68.6487 9.91463 68.4803 10.0299C68.3118 10.1363 68.2276 10.287 68.2276 10.4821C68.2276 10.6949 68.3162 10.8545 68.4935 10.9609C68.6709 11.0584 68.9103 11.1338 69.2118 11.187L69.5841 11.2535C70.0807 11.3422 70.5285 11.4619 70.9275 11.6126C71.3353 11.7545 71.6545 11.9628 71.8851 12.2377C72.1245 12.5037 72.2441 12.8672 72.2441 13.3283C72.2441 14.0199 71.9914 14.5563 71.486 14.9376C70.9895 15.31 70.3201 15.4962 69.4777 15.4962Z" fill="#F4E6CD"/>
<path d="M76.7185 15.4962C76.0623 15.4962 75.4816 15.3588 74.9762 15.0839C74.4796 14.8002 74.0895 14.4056 73.8058 13.9002C73.5309 13.3859 73.3935 12.783 73.3935 12.0914V11.9318C73.3935 11.2402 73.5309 10.6417 73.8058 10.1363C74.0806 9.62203 74.4663 9.22747 74.9629 8.9526C75.4594 8.66887 76.0357 8.527 76.6919 8.527C77.3391 8.527 77.9022 8.6733 78.381 8.9659C78.8598 9.24963 79.2322 9.64863 79.4982 10.1629C79.7642 10.6683 79.8972 11.2579 79.8972 11.9318V12.5037H75.0959C75.1136 12.9559 75.2821 13.3239 75.6013 13.6076C75.9205 13.8913 76.3106 14.0332 76.7717 14.0332C77.2416 14.0332 77.5874 13.9312 77.8091 13.7273C78.0307 13.5234 78.1992 13.2973 78.3145 13.049L79.6844 13.7672C79.5602 13.9977 79.3785 14.2504 79.1391 14.5253C78.9085 14.7913 78.5982 15.0218 78.2081 15.2169C77.8179 15.4031 77.3214 15.4962 76.7185 15.4962ZM75.1092 11.2535H78.1948C78.1593 10.8722 78.0041 10.5663 77.7293 10.3358C77.4633 10.1053 77.113 9.99 76.6786 9.99C76.2264 9.99 75.8673 10.1053 75.6013 10.3358C75.3353 10.5663 75.1712 10.8722 75.1092 11.2535Z" fill="#F4E6CD"/>
<path d="M81.3887 15.31V8.7132H83.0379V9.458H83.2773C83.3749 9.192 83.5345 8.99693 83.7561 8.8728C83.9867 8.74867 84.2527 8.6866 84.5541 8.6866H85.3521V10.1762H84.5275C84.1019 10.1762 83.7517 10.2915 83.4768 10.522C83.202 10.7437 83.0645 11.0895 83.0645 11.5594V15.31H81.3887Z" fill="#F4E6CD"/>
<path d="M89.9858 15.31V6H91.7414V9.8437H95.1994V6H96.955V15.31H95.1994V11.4397H91.7414V15.31H89.9858Z" fill="#C99477"/>
<path d="M101.906 15.4962C101.25 15.4962 100.66 15.3632 100.137 15.0972C99.6139 14.8312 99.2016 14.4455 98.9002 13.9401C98.5987 13.4347 98.448 12.8273 98.448 12.118V11.9052C98.448 11.1959 98.5987 10.5885 98.9002 10.0831C99.2016 9.5777 99.6139 9.192 100.137 8.926C100.66 8.66 101.25 8.527 101.906 8.527C102.562 8.527 103.152 8.66 103.675 8.926C104.198 9.192 104.61 9.5777 104.912 10.0831C105.213 10.5885 105.364 11.1959 105.364 11.9052V12.118C105.364 12.8273 105.213 13.4347 104.912 13.9401C104.61 14.4455 104.198 14.8312 103.675 15.0972C103.152 15.3632 102.562 15.4962 101.906 15.4962ZM101.906 14.0066C102.42 14.0066 102.846 13.8426 103.183 13.5145C103.52 13.1776 103.688 12.6988 103.688 12.0781V11.9451C103.688 11.3244 103.52 10.8501 103.183 10.522C102.855 10.1851 102.429 10.0166 101.906 10.0166C101.392 10.0166 100.966 10.1851 100.629 10.522C100.292 10.8501 100.124 11.3244 100.124 11.9451V12.0781C100.124 12.6988 100.292 13.1776 100.629 13.5145C100.966 13.8426 101.392 14.0066 101.906 14.0066Z" fill="#C99477"/>
<path d="M106.911 15.31V8.7132H108.56V9.4314H108.799C108.915 9.20973 109.105 9.0191 109.371 8.8595C109.637 8.69103 109.988 8.6068 110.422 8.6068C110.892 8.6068 111.269 8.6999 111.553 8.8861C111.836 9.06343 112.053 9.2984 112.204 9.591H112.444C112.594 9.30727 112.807 9.0723 113.082 8.8861C113.357 8.6999 113.747 8.6068 114.252 8.6068C114.66 8.6068 115.028 8.69547 115.356 8.8728C115.693 9.04127 115.959 9.30283 116.154 9.6575C116.358 10.0033 116.46 10.4422 116.46 10.9742V15.31H114.784V11.0939C114.784 10.7304 114.691 10.4599 114.505 10.2826C114.319 10.0964 114.057 10.0033 113.72 10.0033C113.339 10.0033 113.042 10.1274 112.829 10.3757C112.625 10.6151 112.523 10.9609 112.523 11.4131V15.31H110.848V11.0939C110.848 10.7304 110.755 10.4599 110.568 10.2826C110.382 10.0964 110.121 10.0033 109.784 10.0033C109.402 10.0033 109.105 10.1274 108.893 10.3757C108.689 10.6151 108.587 10.9609 108.587 11.4131V15.31H106.911Z" fill="#C99477"/>
<path d="M121.268 15.4962C120.612 15.4962 120.031 15.3588 119.526 15.0839C119.03 14.8002 118.639 14.4056 118.356 13.9002C118.081 13.3859 117.943 12.783 117.943 12.0914V11.9318C117.943 11.2402 118.081 10.6417 118.356 10.1363C118.631 9.62203 119.016 9.22747 119.513 8.9526C120.009 8.66887 120.586 8.527 121.242 8.527C121.889 8.527 122.452 8.6733 122.931 8.9659C123.41 9.24963 123.782 9.64863 124.048 10.1629C124.314 10.6683 124.447 11.2579 124.447 11.9318V12.5037H119.646C119.664 12.9559 119.832 13.3239 120.151 13.6076C120.47 13.8913 120.861 14.0332 121.322 14.0332C121.792 14.0332 122.137 13.9312 122.359 13.7273C122.581 13.5234 122.749 13.2973 122.864 13.049L124.234 13.7672C124.11 13.9977 123.928 14.2504 123.689 14.5253C123.458 14.7913 123.148 15.0218 122.758 15.2169C122.368 15.4031 121.871 15.4962 121.268 15.4962ZM119.659 11.2535H122.745C122.709 10.8722 122.554 10.5663 122.279 10.3358C122.013 10.1053 121.663 9.99 121.228 9.99C120.776 9.99 120.417 10.1053 120.151 10.3358C119.885 10.5663 119.721 10.8722 119.659 11.2535Z" fill="#C99477"/>
<path d="M125.939 17.97V8.7132H127.588V9.5112H127.827C127.978 9.25407 128.213 9.02797 128.532 8.8329C128.851 8.62897 129.308 8.527 129.902 8.527C130.434 8.527 130.926 8.66 131.378 8.926C131.831 9.18313 132.194 9.5644 132.469 10.0698C132.744 10.5752 132.881 11.187 132.881 11.9052V12.118C132.881 12.8362 132.744 13.448 132.469 13.9534C132.194 14.4588 131.831 14.8445 131.378 15.1105C130.926 15.3676 130.434 15.4962 129.902 15.4962C129.503 15.4962 129.166 15.4474 128.891 15.3499C128.625 15.2612 128.408 15.146 128.24 15.0041C128.08 14.8534 127.951 14.7026 127.854 14.5519H127.614V17.97H125.939ZM129.397 14.0332C129.92 14.0332 130.35 13.8692 130.687 13.5411C131.033 13.2042 131.205 12.7165 131.205 12.0781V11.9451C131.205 11.3067 131.033 10.8235 130.687 10.4954C130.341 10.1585 129.911 9.99 129.397 9.99C128.882 9.99 128.452 10.1585 128.107 10.4954C127.761 10.8235 127.588 11.3067 127.588 11.9451V12.0781C127.588 12.7165 127.761 13.2042 128.107 13.5411C128.452 13.8692 128.882 14.0332 129.397 14.0332Z" fill="#C99477"/>
<path d="M136.468 15.4962C135.998 15.4962 135.577 15.4164 135.205 15.2568C134.832 15.0883 134.535 14.8489 134.314 14.5386C134.101 14.2194 133.994 13.8337 133.994 13.3815C133.994 12.9293 134.101 12.5525 134.314 12.251C134.535 11.9407 134.837 11.7101 135.218 11.5594C135.608 11.3998 136.051 11.32 136.548 11.32H138.357V10.9476C138.357 10.6373 138.259 10.3846 138.064 10.1895C137.869 9.98557 137.559 9.8836 137.133 9.8836C136.716 9.8836 136.406 9.98113 136.202 10.1762C135.998 10.3624 135.865 10.6062 135.803 10.9077L134.26 10.389C134.367 10.0521 134.535 9.74617 134.766 9.4713C135.005 9.18757 135.32 8.96147 135.71 8.793C136.109 8.61567 136.592 8.527 137.16 8.527C138.029 8.527 138.716 8.74423 139.221 9.1787C139.727 9.61317 139.979 10.2427 139.979 11.0673V13.5278C139.979 13.7938 140.104 13.9268 140.352 13.9268H140.884V15.31H139.767C139.439 15.31 139.168 15.2302 138.955 15.0706C138.742 14.911 138.636 14.6982 138.636 14.4322V14.4189H138.383C138.348 14.5253 138.268 14.6672 138.144 14.8445C138.02 15.013 137.825 15.1637 137.559 15.2967C137.293 15.4297 136.929 15.4962 136.468 15.4962ZM136.761 14.1396C137.231 14.1396 137.612 14.011 137.905 13.7539C138.206 13.4879 138.357 13.1377 138.357 12.7032V12.5702H136.668C136.357 12.5702 136.114 12.6367 135.936 12.7697C135.759 12.9027 135.67 13.0889 135.67 13.3283C135.67 13.5677 135.763 13.7628 135.95 13.9135C136.136 14.0642 136.406 14.1396 136.761 14.1396Z" fill="#C99477"/>
<path d="M141.66 12.0382V11.8254C141.66 11.1338 141.797 10.5442 142.072 10.0565C142.347 9.55997 142.711 9.18313 143.163 8.926C143.624 8.66 144.125 8.527 144.666 8.527C145.269 8.527 145.725 8.6334 146.036 8.8462C146.346 9.059 146.572 9.28067 146.714 9.5112H146.953V8.7132H148.603V16.4804C148.603 16.9326 148.47 17.2917 148.204 17.5577C147.938 17.8326 147.583 17.97 147.14 17.97H142.724V16.507H146.554C146.803 16.507 146.927 16.374 146.927 16.108V14.3923H146.687C146.599 14.5342 146.475 14.6805 146.315 14.8312C146.155 14.9731 145.943 15.0928 145.677 15.1903C145.411 15.2878 145.074 15.3366 144.666 15.3366C144.125 15.3366 143.624 15.208 143.163 14.9509C142.711 14.6849 142.347 14.3081 142.072 13.8204C141.797 13.3239 141.66 12.7298 141.66 12.0382ZM145.145 13.8736C145.659 13.8736 146.089 13.7096 146.435 13.3815C146.78 13.0534 146.953 12.5924 146.953 11.9983V11.8653C146.953 11.2624 146.78 10.8013 146.435 10.4821C146.098 10.154 145.668 9.99 145.145 9.99C144.63 9.99 144.2 10.154 143.854 10.4821C143.509 10.8013 143.336 11.2624 143.336 11.8653V11.9983C143.336 12.5924 143.509 13.0534 143.854 13.3815C144.2 13.7096 144.63 13.8736 145.145 13.8736Z" fill="#C99477"/>
<path d="M153.466 15.4962C152.81 15.4962 152.229 15.3588 151.724 15.0839C151.227 14.8002 150.837 14.4056 150.554 13.9002C150.279 13.3859 150.141 12.783 150.141 12.0914V11.9318C150.141 11.2402 150.279 10.6417 150.554 10.1363C150.828 9.62203 151.214 9.22747 151.711 8.9526C152.207 8.66887 152.784 8.527 153.44 8.527C154.087 8.527 154.65 8.6733 155.129 8.9659C155.608 9.24963 155.98 9.64863 156.246 10.1629C156.512 10.6683 156.645 11.2579 156.645 11.9318V12.5037H151.844C151.861 12.9559 152.03 13.3239 152.349 13.6076C152.668 13.8913 153.058 14.0332 153.52 14.0332C153.989 14.0332 154.335 13.9312 154.557 13.7273C154.779 13.5234 154.947 13.2973 155.062 13.049L156.432 13.7672C156.308 13.9977 156.126 14.2504 155.887 14.5253C155.656 14.7913 155.346 15.0218 154.956 15.2169C154.566 15.4031 154.069 15.4962 153.466 15.4962ZM151.857 11.2535H154.943C154.907 10.8722 154.752 10.5663 154.477 10.3358C154.211 10.1053 153.861 9.99 153.426 9.99C152.974 9.99 152.615 10.1053 152.349 10.3358C152.083 10.5663 151.919 10.8722 151.857 11.2535Z" fill="#C99477"/>
<path d="M34 21.77V18.97H34.5L35.348 21.618H35.396L36.244 18.97H36.744V21.77H36.496V19.122H36.448L35.6 21.77H35.144L34.296 19.122H34.248V21.77H34Z" fill="#C99477"/>
<path d="M38.0376 21.826C37.9016 21.826 37.7776 21.8033 37.6656 21.758C37.5563 21.71 37.4696 21.6406 37.4056 21.55C37.3416 21.4593 37.3096 21.35 37.3096 21.222C37.3096 21.0913 37.3416 20.9833 37.4056 20.898C37.4696 20.8126 37.5563 20.7486 37.6656 20.706C37.7749 20.6633 37.8963 20.642 38.0296 20.642H38.7416V20.486C38.7416 20.3286 38.6963 20.206 38.6056 20.118C38.5149 20.03 38.3829 19.986 38.2096 19.986C38.0389 19.986 37.9029 20.0286 37.8016 20.114C37.7029 20.1966 37.6363 20.3086 37.6016 20.45L37.3696 20.382C37.4016 20.2673 37.4523 20.1646 37.5216 20.074C37.5909 19.9806 37.6829 19.9073 37.7976 19.854C37.9123 19.798 38.0496 19.77 38.2096 19.77C38.4549 19.77 38.6443 19.834 38.7776 19.962C38.9136 20.09 38.9816 20.2686 38.9816 20.498V21.442C38.9816 21.522 39.0189 21.562 39.0936 21.562H39.2816V21.77H39.0256C38.9429 21.77 38.8776 21.746 38.8296 21.698C38.7816 21.6473 38.7576 21.5793 38.7576 21.494V21.466H38.7176C38.6829 21.5246 38.6376 21.582 38.5816 21.638C38.5283 21.694 38.4576 21.7393 38.3696 21.774C38.2816 21.8086 38.1709 21.826 38.0376 21.826ZM38.0536 21.61C38.2589 21.61 38.4243 21.5486 38.5496 21.426C38.6776 21.3006 38.7416 21.1246 38.7416 20.898V20.85H38.0336C37.8949 20.85 37.7789 20.8806 37.6856 20.942C37.5949 21.0006 37.5496 21.0926 37.5496 21.218C37.5496 21.3433 37.5963 21.4406 37.6896 21.51C37.7856 21.5766 37.9069 21.61 38.0536 21.61Z" fill="#C99477"/>
<path d="M39.7385 21.77V18.97H39.9785V20.658H40.0265L41.0225 19.826H41.3745L40.2225 20.774L41.4065 21.77H41.0585L40.0265 20.894H39.9785V21.77H39.7385Z" fill="#C99477"/>
<path d="M42.6423 21.826C42.4423 21.826 42.2676 21.7846 42.1183 21.702C41.9716 21.6166 41.8569 21.498 41.7743 21.346C41.6916 21.194 41.6503 21.0193 41.6503 20.822V20.774C41.6503 20.574 41.6916 20.3993 41.7743 20.25C41.8569 20.098 41.9703 19.9806 42.1143 19.898C42.2609 19.8126 42.4276 19.77 42.6143 19.77C42.7956 19.77 42.9556 19.8086 43.0943 19.886C43.2356 19.9606 43.3463 20.07 43.4263 20.214C43.5063 20.3553 43.5463 20.5246 43.5463 20.722V20.85H41.8903C41.8983 21.0926 41.9716 21.2806 42.1103 21.414C42.2516 21.5446 42.4289 21.61 42.6423 21.61C42.8236 21.61 42.9636 21.5686 43.0623 21.486C43.1636 21.4033 43.2409 21.302 43.2943 21.182L43.5103 21.278C43.4703 21.366 43.4143 21.4526 43.3423 21.538C43.2729 21.6206 43.1823 21.69 43.0703 21.746C42.9583 21.7993 42.8156 21.826 42.6423 21.826ZM41.8943 20.642H43.3023C43.2916 20.4313 43.2236 20.27 43.0983 20.158C42.9729 20.0433 42.8116 19.986 42.6143 19.986C42.4196 19.986 42.2583 20.0433 42.1303 20.158C42.0023 20.27 41.9236 20.4313 41.8943 20.642Z" fill="#C99477"/>
<path d="M45.4122 22.57V22.354H46.5482C46.6282 22.354 46.6682 22.314 46.6682 22.234V21.434H46.6202C46.5882 21.498 46.5428 21.5593 46.4842 21.618C46.4282 21.674 46.3535 21.7206 46.2602 21.758C46.1695 21.7926 46.0548 21.81 45.9162 21.81C45.7775 21.81 45.6482 21.7806 45.5282 21.722C45.4108 21.6633 45.3162 21.5753 45.2442 21.458C45.1748 21.3406 45.1402 21.1926 45.1402 21.014V19.826H45.3802V20.998C45.3802 21.2086 45.4335 21.3606 45.5402 21.454C45.6468 21.5473 45.7895 21.594 45.9682 21.594C46.1682 21.594 46.3348 21.5286 46.4682 21.398C46.6015 21.2673 46.6682 21.0686 46.6682 20.802V19.826H46.9082V22.266C46.9082 22.362 46.8815 22.4366 46.8282 22.49C46.7775 22.5433 46.7002 22.57 46.5962 22.57H45.4122Z" fill="#C99477"/>
<path d="M48.5015 21.826C48.3041 21.826 48.1308 21.7846 47.9815 21.702C47.8348 21.6166 47.7201 21.4993 47.6375 21.35C47.5575 21.198 47.5175 21.022 47.5175 20.822V20.774C47.5175 20.574 47.5575 20.3993 47.6375 20.25C47.7201 20.098 47.8348 19.9806 47.9815 19.898C48.1308 19.8126 48.3041 19.77 48.5015 19.77C48.6988 19.77 48.8708 19.8126 49.0175 19.898C49.1668 19.9806 49.2815 20.098 49.3615 20.25C49.4441 20.3993 49.4855 20.574 49.4855 20.774V20.822C49.4855 21.022 49.4441 21.198 49.3615 21.35C49.2815 21.4993 49.1668 21.6166 49.0175 21.702C48.8708 21.7846 48.6988 21.826 48.5015 21.826ZM48.5015 21.61C48.7308 21.61 48.9121 21.538 49.0455 21.394C49.1788 21.2473 49.2455 21.054 49.2455 20.814V20.782C49.2455 20.542 49.1788 20.35 49.0455 20.206C48.9121 20.0593 48.7308 19.986 48.5015 19.986C48.2748 19.986 48.0935 20.0593 47.9575 20.206C47.8241 20.35 47.7575 20.542 47.7575 20.782V20.814C47.7575 21.054 47.8241 21.2473 47.9575 21.394C48.0935 21.538 48.2748 21.61 48.5015 21.61Z" fill="#C99477"/>
<path d="M50.8419 21.81C50.7033 21.81 50.5739 21.7806 50.4539 21.722C50.3366 21.6633 50.2419 21.5753 50.1699 21.458C50.1006 21.338 50.0659 21.1886 50.0659 21.01V19.826H50.3059V20.994C50.3059 21.2046 50.3593 21.358 50.4659 21.454C50.5726 21.5473 50.7153 21.594 50.8939 21.594C51.0939 21.594 51.2606 21.5286 51.3939 21.398C51.5273 21.2646 51.5939 21.0646 51.5939 20.798V19.826H51.8339V21.77H51.6019V21.41H51.5539C51.5059 21.514 51.4273 21.6073 51.3179 21.69C51.2086 21.77 51.0499 21.81 50.8419 21.81Z" fill="#C99477"/>
<path d="M52.5392 21.77V19.826H52.7712V20.07H52.8192C52.8566 19.982 52.9112 19.918 52.9832 19.878C53.0579 19.838 53.1606 19.818 53.2912 19.818H53.5192V20.042H53.2632C53.1166 20.042 52.9992 20.0833 52.9112 20.166C52.8232 20.2486 52.7792 20.378 52.7792 20.554V21.77H52.5392Z" fill="#C99477"/>
<path d="M56.0871 21.826C55.8737 21.826 55.7071 21.7846 55.5871 21.702C55.4697 21.6166 55.3831 21.5206 55.3271 21.414H55.2791V21.77H55.0471V18.97H55.2871V20.166H55.3351C55.3697 20.0993 55.4177 20.0366 55.4791 19.978C55.5431 19.9166 55.6244 19.8673 55.7231 19.83C55.8244 19.79 55.9457 19.77 56.0871 19.77C56.2631 19.77 56.4217 19.8113 56.5631 19.894C56.7044 19.974 56.8164 20.09 56.8991 20.242C56.9817 20.3913 57.0231 20.5686 57.0231 20.774V20.822C57.0231 21.0273 56.9804 21.206 56.8951 21.358C56.8124 21.5073 56.7004 21.6233 56.5591 21.706C56.4177 21.786 56.2604 21.826 56.0871 21.826ZM56.0311 21.61C56.2524 21.61 56.4311 21.5393 56.5671 21.398C56.7057 21.2566 56.7751 21.062 56.7751 20.814V20.782C56.7751 20.534 56.7057 20.3393 56.5671 20.198C56.4311 20.0566 56.2524 19.986 56.0311 19.986C55.8124 19.986 55.6337 20.0566 55.4951 20.198C55.3564 20.3393 55.2871 20.534 55.2871 20.782V20.814C55.2871 21.062 55.3564 21.2566 55.4951 21.398C55.6337 21.5393 55.8124 21.61 56.0311 21.61Z" fill="#C99477"/>
<path d="M57.633 21.77V19.826H57.865V20.07H57.913C57.9503 19.982 58.005 19.918 58.077 19.878C58.1517 19.838 58.2543 19.818 58.385 19.818H58.613V20.042H58.357C58.2103 20.042 58.093 20.0833 58.005 20.166C57.917 20.2486 57.873 20.378 57.873 20.554V21.77H57.633Z" fill="#C99477"/>
<path d="M59.9272 21.826C59.7299 21.826 59.5566 21.7846 59.4072 21.702C59.2606 21.6166 59.1459 21.4993 59.0632 21.35C58.9832 21.198 58.9432 21.022 58.9432 20.822V20.774C58.9432 20.574 58.9832 20.3993 59.0632 20.25C59.1459 20.098 59.2606 19.9806 59.4072 19.898C59.5566 19.8126 59.7299 19.77 59.9272 19.77C60.1246 19.77 60.2966 19.8126 60.4432 19.898C60.5926 19.9806 60.7072 20.098 60.7872 20.25C60.8699 20.3993 60.9112 20.574 60.9112 20.774V20.822C60.9112 21.022 60.8699 21.198 60.7872 21.35C60.7072 21.4993 60.5926 21.6166 60.4432 21.702C60.2966 21.7846 60.1246 21.826 59.9272 21.826ZM59.9272 21.61C60.1566 21.61 60.3379 21.538 60.4712 21.394C60.6046 21.2473 60.6712 21.054 60.6712 20.814V20.782C60.6712 20.542 60.6046 20.35 60.4712 20.206C60.3379 20.0593 60.1566 19.986 59.9272 19.986C59.7006 19.986 59.5192 20.0593 59.3832 20.206C59.2499 20.35 59.1832 20.542 59.1832 20.782V20.814C59.1832 21.054 59.2499 21.2473 59.3832 21.394C59.5192 21.538 59.7006 21.61 59.9272 21.61Z" fill="#C99477"/>
<path d="M61.7889 21.77L61.3489 19.826H61.5969L61.9809 21.61H62.0289L62.5289 19.826H62.9369L63.4369 21.61H63.4849L63.8689 19.826H64.1169L63.6769 21.77H63.2569L62.7569 19.986H62.7089L62.2089 21.77H61.7889Z" fill="#C99477"/>
<path d="M65.4441 21.826C65.2094 21.826 65.0081 21.77 64.8401 21.658C64.6747 21.546 64.5734 21.3606 64.5361 21.102L64.7721 21.058C64.7934 21.1993 64.8361 21.3113 64.9001 21.394C64.9667 21.474 65.0467 21.5313 65.1401 21.566C65.2361 21.6006 65.3374 21.618 65.4441 21.618C65.6041 21.618 65.7321 21.586 65.8281 21.522C65.9267 21.4553 65.9761 21.3646 65.9761 21.25C65.9761 21.1326 65.9294 21.0513 65.8361 21.006C65.7454 20.9606 65.6241 20.9246 65.4721 20.898L65.2881 20.866C65.1654 20.8446 65.0547 20.8126 64.9561 20.77C64.8574 20.7246 64.7787 20.6646 64.7201 20.59C64.6641 20.5153 64.6361 20.422 64.6361 20.31C64.6361 20.142 64.7014 20.01 64.8321 19.914C64.9654 19.818 65.1414 19.77 65.3601 19.77C65.5814 19.77 65.7587 19.8206 65.8921 19.922C66.0281 20.0206 66.1134 20.1646 66.1481 20.354L65.9241 20.402C65.8974 20.2473 65.8334 20.138 65.7321 20.074C65.6334 20.01 65.5094 19.978 65.3601 19.978C65.2134 19.978 65.0961 20.006 65.0081 20.062C64.9201 20.118 64.8761 20.2006 64.8761 20.31C64.8761 20.4166 64.9161 20.4953 64.9961 20.546C65.0761 20.594 65.1854 20.63 65.3241 20.654L65.5081 20.686C65.6414 20.7073 65.7614 20.7393 65.8681 20.782C65.9747 20.822 66.0587 20.8793 66.1201 20.954C66.1841 21.0286 66.2161 21.1273 66.2161 21.25C66.2161 21.434 66.1467 21.5766 66.0081 21.678C65.8694 21.7766 65.6814 21.826 65.4441 21.826Z" fill="#C99477"/>
<path d="M67.6813 21.826C67.4813 21.826 67.3067 21.7846 67.1573 21.702C67.0107 21.6166 66.896 21.498 66.8133 21.346C66.7307 21.194 66.6893 21.0193 66.6893 20.822V20.774C66.6893 20.574 66.7307 20.3993 66.8133 20.25C66.896 20.098 67.0093 19.9806 67.1533 19.898C67.3 19.8126 67.4667 19.77 67.6533 19.77C67.8347 19.77 67.9947 19.8086 68.1333 19.886C68.2747 19.9606 68.3853 20.07 68.4653 20.214C68.5453 20.3553 68.5853 20.5246 68.5853 20.722V20.85H66.9293C66.9373 21.0926 67.0107 21.2806 67.1493 21.414C67.2907 21.5446 67.468 21.61 67.6813 21.61C67.8627 21.61 68.0027 21.5686 68.1013 21.486C68.2027 21.4033 68.28 21.302 68.3333 21.182L68.5493 21.278C68.5093 21.366 68.4533 21.4526 68.3813 21.538C68.312 21.6206 68.2213 21.69 68.1093 21.746C67.9973 21.7993 67.8547 21.826 67.6813 21.826ZM66.9333 20.642H68.3413C68.3307 20.4313 68.2627 20.27 68.1373 20.158C68.012 20.0433 67.8507 19.986 67.6533 19.986C67.4587 19.986 67.2973 20.0433 67.1693 20.158C67.0413 20.27 66.9627 20.4313 66.9333 20.642Z" fill="#C99477"/>
<path d="M69.176 21.77V19.826H69.408V20.07H69.456C69.4933 19.982 69.548 19.918 69.62 19.878C69.6946 19.838 69.7973 19.818 69.928 19.818H70.156V20.042H69.9C69.7533 20.042 69.636 20.0833 69.548 20.166C69.46 20.2486 69.416 20.378 69.416 20.554V21.77H69.176Z" fill="#C99477"/>
<path d="M71.6838 22.57V19.826H71.9158V20.182H71.9638C72.0198 20.0753 72.1064 19.9806 72.2238 19.898C72.3438 19.8126 72.5104 19.77 72.7238 19.77C72.8971 19.77 73.0544 19.8113 73.1958 19.894C73.3371 19.974 73.4491 20.0886 73.5318 20.238C73.6171 20.3873 73.6598 20.566 73.6598 20.774V20.822C73.6598 21.0273 73.6184 21.206 73.5358 21.358C73.4531 21.5073 73.3411 21.6233 73.1998 21.706C73.0584 21.786 72.8998 21.826 72.7238 21.826C72.5824 21.826 72.4611 21.8073 72.3598 21.77C72.2611 21.73 72.1798 21.6793 72.1158 21.618C72.0544 21.5566 72.0064 21.494 71.9718 21.43H71.9238V22.57H71.6838ZM72.6678 21.61C72.8891 21.61 73.0678 21.5393 73.2038 21.398C73.3424 21.2566 73.4118 21.062 73.4118 20.814V20.782C73.4118 20.534 73.3424 20.3393 73.2038 20.198C73.0678 20.0566 72.8891 19.986 72.6678 19.986C72.4491 19.986 72.2704 20.0566 72.1318 20.198C71.9931 20.3393 71.9238 20.534 71.9238 20.782V20.814C71.9238 21.062 71.9931 21.2566 72.1318 21.398C72.2704 21.5393 72.4491 21.61 72.6678 21.61Z" fill="#C99477"/>
<path d="M74.2697 21.77V19.826H74.5017V20.07H74.5497C74.587 19.982 74.6417 19.918 74.7137 19.878C74.7884 19.838 74.891 19.818 75.0217 19.818H75.2497V20.042H74.9937C74.847 20.042 74.7297 20.0833 74.6417 20.166C74.5537 20.2486 74.5097 20.378 74.5097 20.554V21.77H74.2697Z" fill="#C99477"/>
<path d="M76.572 21.826C76.372 21.826 76.1973 21.7846 76.048 21.702C75.9013 21.6166 75.7866 21.498 75.704 21.346C75.6213 21.194 75.58 21.0193 75.58 20.822V20.774C75.58 20.574 75.6213 20.3993 75.704 20.25C75.7866 20.098 75.9 19.9806 76.044 19.898C76.1906 19.8126 76.3573 19.77 76.544 19.77C76.7253 19.77 76.8853 19.8086 77.024 19.886C77.1653 19.9606 77.276 20.07 77.356 20.214C77.436 20.3553 77.476 20.5246 77.476 20.722V20.85H75.82C75.828 21.0926 75.9013 21.2806 76.04 21.414C76.1813 21.5446 76.3586 21.61 76.572 21.61C76.7533 21.61 76.8933 21.5686 76.992 21.486C77.0933 21.4033 77.1706 21.302 77.224 21.182L77.44 21.278C77.4 21.366 77.344 21.4526 77.272 21.538C77.2026 21.6206 77.112 21.69 77 21.746C76.888 21.7993 76.7453 21.826 76.572 21.826ZM75.824 20.642H77.232C77.2213 20.4313 77.1533 20.27 77.028 20.158C76.9026 20.0433 76.7413 19.986 76.544 19.986C76.3493 19.986 76.188 20.0433 76.06 20.158C75.932 20.27 75.8533 20.4313 75.824 20.642Z" fill="#C99477"/>
<path d="M78.7706 21.77C78.6666 21.77 78.5879 21.7433 78.5346 21.69C78.4839 21.6366 78.4586 21.562 78.4586 21.466V20.042H77.8346V19.826H78.4586V19.098H78.6986V19.826H79.2466V20.042H78.6986V21.434C78.6986 21.514 78.7386 21.554 78.8186 21.554H79.2746V21.77H78.7706ZM80.0506 21.77C79.9466 21.77 79.8679 21.7433 79.8146 21.69C79.7639 21.6366 79.7386 21.562 79.7386 21.466V20.042H79.2466V19.826H79.7386V19.098H79.9786V19.826H80.6586V20.042H79.9786V21.434C79.9786 21.514 80.0186 21.554 80.0986 21.554H80.5546V21.77H80.0506Z" fill="#C99477"/>
<path d="M81.1955 21.77V19.826H81.4355V21.77H81.1955ZM81.3155 19.49C81.2568 19.49 81.2075 19.47 81.1675 19.43C81.1275 19.39 81.1075 19.3406 81.1075 19.282C81.1075 19.2206 81.1275 19.1713 81.1675 19.134C81.2075 19.094 81.2568 19.074 81.3155 19.074C81.3768 19.074 81.4262 19.094 81.4635 19.134C81.5035 19.1713 81.5235 19.2206 81.5235 19.282C81.5235 19.3406 81.5035 19.39 81.4635 19.43C81.4262 19.47 81.3768 19.49 81.3155 19.49Z" fill="#C99477"/>
<path d="M83.0368 21.826C82.8368 21.826 82.6621 21.7846 82.5128 21.702C82.3661 21.6166 82.2515 21.498 82.1688 21.346C82.0861 21.194 82.0448 21.0193 82.0448 20.822V20.774C82.0448 20.574 82.0861 20.3993 82.1688 20.25C82.2515 20.098 82.3648 19.9806 82.5088 19.898C82.6555 19.8126 82.8221 19.77 83.0088 19.77C83.1901 19.77 83.3501 19.8086 83.4888 19.886C83.6301 19.9606 83.7408 20.07 83.8208 20.214C83.9008 20.3553 83.9408 20.5246 83.9408 20.722V20.85H82.2848C82.2928 21.0926 82.3661 21.2806 82.5048 21.414C82.6461 21.5446 82.8235 21.61 83.0368 21.61C83.2181 21.61 83.3581 21.5686 83.4568 21.486C83.5581 21.4033 83.6355 21.302 83.6888 21.182L83.9048 21.278C83.8648 21.366 83.8088 21.4526 83.7368 21.538C83.6675 21.6206 83.5768 21.69 83.4648 21.746C83.3528 21.7993 83.2101 21.826 83.0368 21.826ZM82.2888 20.642H83.6968C83.6861 20.4313 83.6181 20.27 83.4928 20.158C83.3675 20.0433 83.2061 19.986 83.0088 19.986C82.8141 19.986 82.6528 20.0433 82.5248 20.158C82.3968 20.27 82.3181 20.4313 82.2888 20.642Z" fill="#C99477"/>
<path d="M84.5314 21.77V19.826H84.7634V20.07H84.8114C84.8488 19.982 84.9034 19.918 84.9754 19.878C85.0501 19.838 85.1528 19.818 85.2834 19.818H85.5114V20.042H85.2554C85.1088 20.042 84.9914 20.0833 84.9034 20.166C84.8154 20.2486 84.7714 20.378 84.7714 20.554V21.77H84.5314Z" fill="#C99477"/>
</svg>
