<svg width="200" height="200" viewBox="0 0 200 200" fill="none" xmlns="http://www.w3.org/2000/svg">
<path d="M166 89.7727C166 108.977 150.302 124.545 130.938 124.545C111.573 124.545 95.875 108.977 95.875 89.7727C95.875 70.5683 111.573 55 130.938 55C150.302 55 166 70.5683 166 89.7727Z" fill="#EB6E4B"/>
<path d="M85.5625 67.2727C99.5911 67.2727 111.093 77.1365 112.266 89.7008C114.718 88.4481 117.574 87.7273 120.625 87.7273C129.738 87.7273 137.125 94.1377 137.125 102.045C137.125 104.405 136.461 106.627 135.296 108.589C136.551 108.324 137.853 108.182 139.188 108.182C149.439 108.182 157.75 116.424 157.75 126.591C157.75 136.066 150.531 143.862 141.25 144.88V145H58.75C45.081 145 34 134.011 34 120.455C34 106.898 45.081 95.9091 58.75 95.9091C58.8765 95.9091 59.0026 95.9152 59.1287 95.9171C58.8838 94.5838 58.75 93.2152 58.75 91.8182C58.75 78.2621 70.7544 67.2727 85.5625 67.2727Z" fill="#F2F2F2"/>
</svg>
