<svg width="200" height="200" viewBox="0 0 200 200" fill="none" xmlns="http://www.w3.org/2000/svg">
<path d="M89.5625 61C103.591 61 115.093 70.8638 116.266 83.4281C118.718 82.1754 121.574 81.4545 124.625 81.4545C133.738 81.4545 141.125 87.865 141.125 95.7727C141.125 98.132 140.461 100.354 139.296 102.317C140.551 102.051 141.853 101.909 143.188 101.909C153.439 101.909 161.75 110.151 161.75 120.318C161.75 129.794 154.531 137.59 145.25 138.607V138.727H62.75C49.081 138.727 38 127.738 38 114.182C38 100.626 49.081 89.6364 62.75 89.6364C62.8765 89.6364 63.0026 89.6425 63.1287 89.6444C62.8838 88.3111 62.75 86.9425 62.75 85.5455C62.75 71.9894 74.7544 61 89.5625 61Z" fill="#F2F2F2"/>
</svg>
