<svg width="200" height="200" viewBox="0 0 200 200" fill="none" xmlns="http://www.w3.org/2000/svg">
<path d="M109.5 48C118.731 48 126.299 54.4574 127.071 62.6828C128.684 61.8627 130.564 61.3908 132.571 61.3908C138.568 61.3908 143.429 65.5875 143.429 70.7643C143.429 72.3089 142.992 73.7637 142.225 75.0483C143.051 74.8745 143.907 74.7816 144.786 74.7816C151.531 74.7816 157 80.1773 157 86.8333C157 93.0364 152.25 98.1402 146.143 98.8065V98.885H91.8571C82.8628 98.885 75.5714 91.6907 75.5714 82.816C75.5714 73.9414 82.8628 66.7471 91.8571 66.7471C91.9404 66.7471 92.0234 66.7511 92.1063 66.7523C91.9452 65.8795 91.8571 64.9835 91.8571 64.0689C91.8571 55.1943 99.7561 48 109.5 48Z" fill="#48484A"/>
<path d="M84.9866 56.2073C96.4099 56.2073 105.776 64.3027 106.731 74.6146C108.727 73.5864 111.053 72.9948 113.537 72.9948C120.958 72.9948 126.973 78.256 126.973 84.7461C126.973 86.6825 126.432 88.5063 125.484 90.1168C126.506 89.8989 127.566 89.7824 128.653 89.7824C137.001 89.7824 143.768 96.5468 143.768 104.891C143.768 112.668 137.889 119.066 130.332 119.902V120H63.1536C52.0231 120 43 110.981 43 99.8549C43 88.7291 52.0231 79.7098 63.1536 79.7098C63.2566 79.7098 63.3593 79.7149 63.4619 79.7164C63.2625 78.6221 63.1536 77.4989 63.1536 76.3523C63.1536 65.2265 72.9286 56.2073 84.9866 56.2073Z" fill="#F2F2F2"/>
<path d="M67.4573 132.197C68.2435 130.432 70.3124 129.637 72.0783 130.424C73.8442 131.21 74.6383 133.279 73.8521 135.045L71.8184 139.612C71.0322 141.378 68.9633 142.172 67.1974 141.386C65.4316 140.6 64.6374 138.531 65.4236 136.765L67.4573 132.197Z" fill="#48484A"/>
<path d="M84.4573 129.197C85.2435 127.432 87.3124 126.637 89.0782 127.424C90.8441 128.21 91.6383 130.279 90.8521 132.045L88.8184 136.612C88.0322 138.378 85.9633 139.172 84.1974 138.386C82.4315 137.6 81.6374 135.531 82.4236 133.765L84.4573 129.197Z" fill="#48484A"/>
<path d="M100.818 150.045C100.032 151.81 97.9633 152.605 96.1974 151.818C94.4316 151.032 93.6374 148.963 94.4236 147.197L96.4573 142.63C97.2435 140.864 99.3124 140.07 101.078 140.856C102.844 141.642 103.638 143.711 102.852 145.477L100.818 150.045Z" fill="#48484A"/>
<path d="M73.6438 117.197C74.43 115.432 76.4989 114.637 78.2648 115.424C80.0307 116.21 80.8248 118.279 80.0386 120.045L78.8184 122.785C78.0322 124.551 75.9633 125.345 74.1974 124.559C72.4316 123.773 71.6374 121.704 72.4236 119.938L73.6438 117.197Z" fill="#48484A"/>
<path d="M78.6438 144.197C79.43 142.432 81.4989 141.637 83.2648 142.424C85.0307 143.21 85.8248 145.279 85.0386 147.045C84.2524 148.81 82.1835 149.605 80.4176 148.818C78.6518 148.032 77.8576 145.963 78.6438 144.197Z" fill="#48484A"/>
<path d="M108.818 129.045C108.032 130.81 105.963 131.605 104.197 130.818C102.432 130.032 101.637 127.963 102.424 126.197C103.21 124.431 105.279 123.637 107.045 124.424C108.81 125.21 109.605 127.279 108.818 129.045Z" fill="#48484A"/>
</svg>
