<svg width="200" height="200" viewBox="0 0 200 200" fill="none" xmlns="http://www.w3.org/2000/svg">
<path d="M98.5625 69.2727C112.591 69.2727 124.093 79.1365 125.266 91.7008C127.718 90.4481 130.574 89.7273 133.625 89.7273C142.738 89.7273 150.125 96.1377 150.125 104.045C150.125 106.405 149.461 108.627 148.296 110.589C149.551 110.324 150.853 110.182 152.188 110.182C162.439 110.182 170.75 118.424 170.75 128.591C170.75 138.066 163.531 145.862 154.25 146.88V147H71.75C58.081 147 47 136.011 47 122.455C47 108.898 58.081 97.9091 71.75 97.9091C71.8765 97.9091 72.0026 97.9152 72.1287 97.9171C71.8838 96.5838 71.75 95.2152 71.75 93.8182C71.75 80.2621 83.7544 69.2727 98.5625 69.2727Z" fill="#F2F2F2"/>
<path d="M100.125 89.7727C100.125 108.977 84.427 124.545 65.0625 124.545C45.698 124.545 30 108.977 30 89.7727C30 70.5683 45.698 55 65.0625 55C84.427 55 100.125 70.5683 100.125 89.7727Z" fill="#EB6E4B"/>
</svg>
